<?xml version="1.0" encoding="UTF-8" standalone="no"?>
<!DOCTYPE svg PUBLIC "-//W3C//DTD SVG 1.1//EN" "http://www.w3.org/Graphics/SVG/1.1/DTD/svg11.dtd">
<svg width="100%" height="100%" viewBox="0 0 512 512" version="1.1" xmlns="http://www.w3.org/2000/svg" xmlns:xlink="http://www.w3.org/1999/xlink" xml:space="preserve" xmlns:serif="http://www.serif.com/" style="fill-rule:evenodd;clip-rule:evenodd;stroke-linejoin:round;stroke-miterlimit:2;">
    <g id="MJX-5-NCM-I-1D712" transform="matrix(0.723269,0,0,-0.723269,29.978395,341.707392)">
        <path d="M61,372C65,365 64,359 76,359C84,359 90,363 93,372C100,391 120,412 141,412C186,412 249,202 268,134C273,118 275,108 276,103L43,-160C35,-169 31,-175 31,-178C31,-189 36,-194 47,-194C52,-194 58,-190 65,-182L287,67C315,-26 337,-89 352,-124C357,-137 363,-149 370,-159C387,-185 434,-205 478,-205C514,-205 565,-173 565,-137C565,-127 560,-122 550,-122C543,-122 537,-127 532,-138C523,-163 507,-175 484,-175C453,-175 408,-72 349,135L582,397C590,406 594,412 594,415C594,426 589,431 578,431C573,431 567,427 560,418L338,171C307,271 284,337 270,368C263,383 253,398 239,412C220,432 190,442 147,442C109,442 61,408 61,372Z" style="fill:url(#_Linear1);fill-rule:nonzero;"/>
    </g>
    <defs>
        <linearGradient id="_Linear1" x1="0" y1="0" x2="1" y2="0" gradientUnits="userSpaceOnUse" gradientTransform="matrix(-430.550917,647,647,430.550917,501.021066,-205)"><stop offset="0" style="stop-color:rgb(0,187,205);stop-opacity:1"/><stop offset="0.34" style="stop-color:rgb(134,130,152);stop-opacity:1"/><stop offset="0.59" style="stop-color:rgb(176,102,122);stop-opacity:1"/><stop offset="1" style="stop-color:rgb(220,74,84);stop-opacity:1"/></linearGradient>
    </defs>
</svg>
