<svg width="173" height="63" viewBox="0 0 173 63" fill="none" xmlns="http://www.w3.org/2000/svg">
<g clip-path="url(#clip0_250_20378)">
<path d="M42.2799 59.7901L32.2499 42.2891H31.7519L21.7219 59.7901L20.0039 58.8051L30.6039 40.3091H33.3979L43.9979 58.8051L42.2799 59.7901Z" fill="#B6952F"/>
<path d="M32.3811 54.8251L31.6218 53.3242L21.902 58.2413L22.6613 59.7422L32.3811 54.8251Z" fill="#B6952F"/>
<path d="M32.991 41.2991H31.011V60.6661H32.991V41.2991Z" fill="#B6952F"/>
<path d="M31.6271 54.4311L25.0591 51.1711L26.5761 50.0461L32.3751 52.9221L31.6271 54.4311Z" fill="#B6952F"/>
<path d="M42.1028 58.2351L32.3806 53.325L31.6215 54.8281L41.3437 59.7382L42.1028 58.2351Z" fill="#B6952F"/>
<path d="M32.375 54.4311L31.626 52.9221L37.772 49.8721L38.944 51.1711L32.375 54.4311Z" fill="#B6952F"/>
<path d="M43.4559 42.642L17.6685 35.5984L17.225 37.222L43.0124 44.2656L43.4559 42.642Z" fill="#B6952F"/>
<mask id="mask0_250_20378" style="mask-type:luminance" maskUnits="userSpaceOnUse" x="0" y="0" width="173" height="63">
<path d="M172.989 0H0V62.398H172.989V0Z" fill="white"/>
</mask>
<g mask="url(#mask0_250_20378)">
<path d="M45.3529 48.4229C48.0179 46.5069 48.4269 41.3979 45.7789 39.0349L43.2319 43.1439L45.3529 48.4229Z" fill="#B6952F"/>
</g>
<mask id="mask1_250_20378" style="mask-type:luminance" maskUnits="userSpaceOnUse" x="0" y="0" width="173" height="63">
<path d="M172.989 0H0V62.398H172.989V0Z" fill="white"/>
</mask>
<g mask="url(#mask1_250_20378)">
<path d="M46.721 44.1671C46.657 45.3621 46.271 46.4751 45.663 47.2871L44.171 43.5771L45.892 40.8031C46.484 41.7061 46.787 42.8991 46.721 44.1671ZM46.339 38.7591L45.591 38.0911L42.87 42.4801L42.292 43.4161L42.587 44.1481L44.973 50.0831L45.845 49.4561C47.33 48.3881 48.285 46.4461 48.4 44.2561C48.518 42.0361 47.767 40.0311 46.339 38.7591Z" fill="#B6952F"/>
</g>
<mask id="mask2_250_20378" style="mask-type:luminance" maskUnits="userSpaceOnUse" x="0" y="0" width="173" height="63">
<path d="M172.989 0H0V62.398H172.989V0Z" fill="white"/>
</mask>
<g mask="url(#mask2_250_20378)">
<path d="M19.975 36.98H18.292V47.566H19.975V36.98Z" fill="#B6952F"/>
</g>
<mask id="mask3_250_20378" style="mask-type:luminance" maskUnits="userSpaceOnUse" x="0" y="0" width="173" height="63">
<path d="M172.989 0H0V62.398H172.989V0Z" fill="white"/>
</mask>
<g mask="url(#mask3_250_20378)">
<path d="M21.7529 47.1239C21.7529 48.5709 20.5799 49.7419 19.1339 49.7419C17.6869 49.7419 16.5129 48.5709 16.5129 47.1239C16.5129 45.6779 17.6859 44.5039 19.1339 44.5039C20.5799 44.5029 21.7529 45.6769 21.7529 47.1239Z" fill="#B6952F"/>
</g>
<mask id="mask4_250_20378" style="mask-type:luminance" maskUnits="userSpaceOnUse" x="0" y="0" width="173" height="63">
<path d="M172.989 0H0V62.398H172.989V0Z" fill="white"/>
</mask>
<g mask="url(#mask4_250_20378)">
<path d="M19.1351 48.9031C18.1521 48.9031 17.3551 48.1051 17.3551 47.1261C17.3551 46.4481 17.7341 45.8571 18.2931 45.5581C18.5441 45.4211 18.8311 45.3451 19.1361 45.3451C19.4381 45.3451 19.7241 45.4211 19.9751 45.5581C20.5341 45.8581 20.9131 46.4471 20.9131 47.1261C20.9121 48.1051 20.1141 48.9031 19.1351 48.9031ZM19.9741 43.7651C19.7061 43.7001 19.4251 43.6631 19.1351 43.6631C18.8441 43.6631 18.5611 43.6991 18.2921 43.7651C16.7881 44.1441 15.6721 45.5041 15.6721 47.1251C15.6721 49.0331 17.2231 50.5861 19.1341 50.5861C21.0411 50.5861 22.5951 49.0331 22.5951 47.1251C22.5961 45.5041 21.4791 44.1391 19.9741 43.7651Z" fill="#B6952F"/>
</g>
<mask id="mask5_250_20378" style="mask-type:luminance" maskUnits="userSpaceOnUse" x="0" y="0" width="173" height="63">
<path d="M172.989 0H0V62.398H172.989V0Z" fill="white"/>
</mask>
<g mask="url(#mask5_250_20378)">
<path d="M32.0011 62.3981C25.2401 62.3981 18.7771 60.3141 13.3091 56.3731L14.7561 54.3661C19.8001 58.0001 25.7631 59.9231 32.0011 59.9231C38.2411 59.9231 44.2031 58.0001 49.2451 54.3611L50.6941 56.3661C45.2281 60.3121 38.7641 62.3981 32.0011 62.3981Z" fill="#B6952F"/>
</g>
<mask id="mask6_250_20378" style="mask-type:luminance" maskUnits="userSpaceOnUse" x="0" y="0" width="173" height="63">
<path d="M172.989 0H0V62.398H172.989V0Z" fill="white"/>
</mask>
<g mask="url(#mask6_250_20378)">
<path d="M15.3101 32.7079C14.2611 32.7079 13.2261 32.3819 12.3551 31.7619L12.0481 31.5409L13.4871 29.5289L13.7941 29.7479C14.4091 30.1859 15.1831 30.3379 15.9201 30.1609C16.6551 29.9849 17.2771 29.4979 17.6271 28.8269L18.1401 27.8429C18.8521 26.4759 20.2511 25.6239 21.7921 25.6189H21.8071C23.3421 25.6189 24.7421 26.4599 25.4601 27.8189C25.7531 28.3709 26.3011 28.7009 26.9261 28.7009H26.9321C27.5591 28.6989 28.1071 28.3649 28.3981 27.8079C29.1221 26.4169 30.5211 25.5649 32.0621 25.5599H32.0771C33.6121 25.5599 35.0101 26.3999 35.7301 27.7579C36.0251 28.3169 36.5731 28.6459 37.1981 28.6459H37.2051C37.8311 28.6439 38.3801 28.3089 38.6701 27.7539C39.3961 26.3609 40.7951 25.5079 42.3361 25.5029H42.3511C43.8861 25.5029 45.2851 26.3449 46.0041 27.7019L46.4451 28.5349C46.8071 29.2179 47.4471 29.7039 48.2051 29.8649C48.9601 30.0269 49.7441 29.8489 50.3551 29.3749L50.4811 29.2759L51.9981 31.2319L51.8711 31.3309C50.6811 32.2529 49.1561 32.5999 47.6831 32.2849C46.2111 31.9679 44.9631 31.0239 44.2581 29.6939L43.8161 28.8599C43.5221 28.3049 42.9851 27.9819 42.3441 27.9789C41.7171 27.9799 41.1691 28.3159 40.8791 28.8709C40.1531 30.2659 38.7541 31.1159 37.2131 31.1219H37.1981C35.6631 31.1219 34.2651 30.2799 33.5451 28.9249C33.2511 28.3659 32.7031 28.0359 32.0771 28.0359H32.0701C31.4441 28.0389 30.8951 28.3719 30.6051 28.9299C29.8801 30.3209 28.4811 31.1719 26.9391 31.1769H26.9251C25.3901 31.1769 23.9911 30.3359 23.2731 28.9789C22.9801 28.4249 22.4321 28.0939 21.8061 28.0939H21.8001C21.1731 28.0969 20.6251 28.4309 20.3341 28.9879L19.8211 29.9729C19.1411 31.2789 17.9281 32.2249 16.4961 32.5699C16.1041 32.6629 15.7061 32.7079 15.3101 32.7079Z" fill="#2B3458"/>
</g>
<mask id="mask7_250_20378" style="mask-type:luminance" maskUnits="userSpaceOnUse" x="0" y="0" width="173" height="63">
<path d="M172.989 0H0V62.398H172.989V0Z" fill="white"/>
</mask>
<g mask="url(#mask7_250_20378)">
<path d="M3.06088 23.9509L1.45288 22.5919L3.05088 20.7009L3.72788 21.2719L3.86888 21.3929C3.59088 22.2599 3.35388 23.1419 3.15988 24.0359L3.06088 23.9509Z" fill="#6277BA"/>
</g>
<mask id="mask8_250_20378" style="mask-type:luminance" maskUnits="userSpaceOnUse" x="0" y="0" width="173" height="63">
<path d="M172.989 0H0V62.398H172.989V0Z" fill="white"/>
</mask>
<g mask="url(#mask8_250_20378)">
<path d="M3.27888 37.292C3.49088 38.183 3.74388 39.062 4.03988 39.926L3.89188 40.056L3.29288 40.584L1.65088 38.733L3.17288 37.383L3.27888 37.292Z" fill="#6277BA"/>
</g>
<mask id="mask9_250_20378" style="mask-type:luminance" maskUnits="userSpaceOnUse" x="0" y="0" width="173" height="63">
<path d="M172.989 0H0V62.398H172.989V0Z" fill="white"/>
</mask>
<g mask="url(#mask9_250_20378)">
<path d="M14.6589 30.514L12.8809 32.089L5.93594 38.244C5.68794 37.336 5.47994 36.415 5.32094 35.48L10.8769 30.557L5.24194 25.793C5.38694 24.862 5.57594 23.939 5.80994 23.031L13.5309 29.559L14.6589 30.514Z" fill="#2B3458"/>
</g>
<mask id="mask10_250_20378" style="mask-type:luminance" maskUnits="userSpaceOnUse" x="0" y="0" width="173" height="63">
<path d="M172.989 0H0V62.398H172.989V0Z" fill="white"/>
</mask>
<g mask="url(#mask10_250_20378)">
<path d="M53.1321 30.231L58.7641 34.995C58.6181 35.928 58.4301 36.849 58.1991 37.757L51.1501 31.797L49.3511 30.276L50.4491 29.304L58.0691 22.551C58.3181 23.459 58.5251 24.38 58.6841 25.31L53.1321 30.231Z" fill="#2B3458"/>
</g>
<mask id="mask11_250_20378" style="mask-type:luminance" maskUnits="userSpaceOnUse" x="0" y="0" width="173" height="63">
<path d="M172.989 0H0V62.398H172.989V0Z" fill="white"/>
</mask>
<g mask="url(#mask11_250_20378)">
<path d="M60.7239 23.5001C60.5119 22.6091 60.2589 21.7321 59.9629 20.8681L60.1099 20.7381L60.7139 20.2041L62.3529 22.0551L60.8269 23.4091L60.7239 23.5001Z" fill="#6277BA"/>
</g>
<mask id="mask12_250_20378" style="mask-type:luminance" maskUnits="userSpaceOnUse" x="0" y="0" width="173" height="63">
<path d="M172.989 0H0V62.398H172.989V0Z" fill="white"/>
</mask>
<g mask="url(#mask12_250_20378)">
<path d="M62.5529 38.1969L60.9559 40.0889L60.2789 39.5149L60.1389 39.3969C60.4159 38.5279 60.6529 37.6479 60.8499 36.7549L60.9459 36.8369L62.5529 38.1969Z" fill="#6277BA"/>
</g>
<mask id="mask13_250_20378" style="mask-type:luminance" maskUnits="userSpaceOnUse" x="0" y="0" width="173" height="63">
<path d="M172.989 0H0V62.398H172.989V0Z" fill="white"/>
</mask>
<g mask="url(#mask13_250_20378)">
<path d="M4.04095 39.9259C4.97195 42.6599 6.31095 45.2539 8.03195 47.6419L7.63695 47.924L6.02495 49.089C2.08295 43.629 0.00195312 37.166 0.00195312 30.399C0.00195312 23.633 2.08395 17.166 6.02495 11.7L7.63695 12.865L8.03195 13.148C6.19995 15.689 4.80395 18.463 3.86895 21.393C3.58995 22.259 3.35395 23.141 3.15895 24.035C2.70595 26.105 2.47495 28.236 2.47495 30.4C2.47495 32.748 2.74595 35.0579 3.27895 37.2939C3.49095 38.1829 3.74495 39.0619 4.04095 39.9259Z" fill="#2B3458"/>
</g>
<mask id="mask14_250_20378" style="mask-type:luminance" maskUnits="userSpaceOnUse" x="0" y="0" width="173" height="63">
<path d="M172.989 0H0V62.398H172.989V0Z" fill="white"/>
</mask>
<g mask="url(#mask14_250_20378)">
<path d="M64.006 30.398C64.006 37.161 61.92 43.624 57.977 49.089L56.365 47.924L55.97 47.6419C57.804 45.0999 59.202 42.322 60.138 39.396C60.416 38.527 60.652 37.647 60.849 36.754C61.299 34.686 61.531 32.559 61.531 30.398C61.531 28.049 61.258 25.739 60.724 23.5C60.511 22.609 60.258 21.732 59.962 20.868C59.031 18.134 57.692 15.538 55.969 13.148L56.364 12.865L57.976 11.7C61.92 17.17 64.006 23.635 64.006 30.398Z" fill="#2B3458"/>
</g>
<mask id="mask15_250_20378" style="mask-type:luminance" maskUnits="userSpaceOnUse" x="0" y="0" width="173" height="63">
<path d="M172.989 0H0V62.398H172.989V0Z" fill="white"/>
</mask>
<g mask="url(#mask15_250_20378)">
<path d="M49.2501 8.037C44.2031 4.398 38.2391 2.474 32.0011 2.474C25.7611 2.474 19.7991 4.398 14.7571 8.037L13.3091 6.03C18.7751 2.085 25.2381 0 32.0011 0C38.7611 0 45.2271 2.085 50.6981 6.03L49.2501 8.037Z" fill="#469C79"/>
</g>
<mask id="mask16_250_20378" style="mask-type:luminance" maskUnits="userSpaceOnUse" x="0" y="0" width="173" height="63">
<path d="M172.989 0H0V62.398H172.989V0Z" fill="white"/>
</mask>
<g mask="url(#mask16_250_20378)">
<path d="M33.2389 1.23706H30.7639V21.0591H33.2389V1.23706Z" fill="#469C79"/>
</g>
<mask id="mask17_250_20378" style="mask-type:luminance" maskUnits="userSpaceOnUse" x="-35" y="-16" width="155" height="176">
<path d="M119.879 121.506L14.8745 -15.9688L-34.7132 21.9068L70.2911 159.381L119.879 121.506Z" fill="white"/>
</mask>
<g mask="url(#mask17_250_20378)">
<path d="M31.9493 2.21981L30.447 0.25293L15.2166 11.8861L16.7189 13.853L31.9493 2.21981Z" fill="#469C79"/>
</g>
<mask id="mask18_250_20378" style="mask-type:luminance" maskUnits="userSpaceOnUse" x="-23" y="-13" width="182" height="142">
<path d="M158.198 74.5297L8.44116 -12.0686L-22.7953 41.9493L126.961 128.548L158.198 74.5297Z" fill="white"/>
</mask>
<g mask="url(#mask18_250_20378)">
<path d="M32.6715 1.85616L30.5298 0.617676L20.7486 17.5326L22.8903 18.7711L32.6715 1.85616Z" fill="#469C79"/>
</g>
<mask id="mask19_250_20378" style="mask-type:luminance" maskUnits="userSpaceOnUse" x="-26" y="-24" width="177" height="156">
<path d="M150.055 81.9167L12.5806 -23.0876L-25.295 26.5L112.179 131.504L150.055 81.9167Z" fill="white"/>
</mask>
<g mask="url(#mask19_250_20378)">
<path d="M48.7876 11.8861L33.5571 0.25293L32.0548 2.21981L47.2852 13.853L48.7876 11.8861Z" fill="#469C79"/>
</g>
<mask id="mask20_250_20378" style="mask-type:luminance" maskUnits="userSpaceOnUse" x="-27" y="-28" width="141" height="182">
<path d="M113.601 122.314L27.0195 -27.4426L-26.9984 3.78757L59.5826 153.544L113.601 122.314Z" fill="white"/>
</mask>
<g mask="url(#mask20_250_20378)">
<path d="M43.2529 17.5316L33.4736 0.616699L31.331 1.85544L41.1103 18.7703L43.2529 17.5316Z" fill="#469C79"/>
</g>
<mask id="mask21_250_20378" style="mask-type:luminance" maskUnits="userSpaceOnUse" x="0" y="0" width="173" height="63">
<path d="M172.989 0H0V62.398H172.989V0Z" fill="white"/>
</mask>
<g mask="url(#mask21_250_20378)">
<path d="M61.4951 47.6421H53.3401V50.0861H61.4951V47.6421Z" fill="white"/>
</g>
<mask id="mask22_250_20378" style="mask-type:luminance" maskUnits="userSpaceOnUse" x="0" y="0" width="173" height="63">
<path d="M172.989 0H0V62.398H172.989V0Z" fill="white"/>
</mask>
<g mask="url(#mask22_250_20378)">
<path d="M87.8929 23.6109L90.9039 9.5899H90.9929L94.0079 23.6109H87.8929ZM94.8369 4.1709H87.0629L78.8059 35.3639H85.3589L86.7999 28.7649H95.0979L96.5409 35.3639H103.094L94.8369 4.1709Z" fill="#263268"/>
</g>
<mask id="mask23_250_20378" style="mask-type:luminance" maskUnits="userSpaceOnUse" x="0" y="0" width="173" height="63">
<path d="M172.989 0H0V62.398H172.989V0Z" fill="white"/>
</mask>
<g mask="url(#mask23_250_20378)">
<path d="M118.274 17.1459C117.502 17.9039 116.49 18.2829 115.237 18.2829H112.442V8.8029H115.061C116.634 8.8029 117.755 9.2179 118.427 10.0489C119.096 10.8789 119.431 12.0649 119.431 13.6089C119.432 15.2109 119.045 16.3899 118.274 17.1459ZM125.284 10.0919C124.992 8.9719 124.513 7.9729 123.844 7.0979C123.174 6.2269 122.294 5.5199 121.199 4.9809C120.108 4.4419 118.762 4.1709 117.159 4.1709H106.152V35.3629H112.442V22.9149H115.804C117.289 22.9149 118.644 22.7249 119.867 22.3459C121.092 21.9669 122.133 21.4009 122.992 20.6429C123.85 19.8849 124.521 18.9169 125.001 17.7369C125.48 16.5579 125.723 15.1529 125.723 13.5219C125.723 12.3579 125.577 11.2119 125.284 10.0919Z" fill="#263268"/>
</g>
<mask id="mask24_250_20378" style="mask-type:luminance" maskUnits="userSpaceOnUse" x="0" y="0" width="173" height="63">
<path d="M172.989 0H0V62.398H172.989V0Z" fill="white"/>
</mask>
<g mask="url(#mask24_250_20378)">
<path d="M145.772 12.8449C144.723 11.7819 143.253 11.2499 141.361 11.2499C140.077 11.2499 138.95 11.4979 137.975 11.9929C136.997 12.4879 136.219 13.2429 135.638 14.2619H135.55V4.1709H129.521V35.3619H135.55V19.7679C135.55 17.1749 136.613 15.8799 138.74 15.8799C139.64 15.8799 140.296 16.1269 140.705 16.6219C141.111 17.1199 141.315 17.9629 141.315 19.1579V35.3639H147.344V17.9339C147.346 15.6039 146.821 13.9049 145.772 12.8449Z" fill="#263268"/>
</g>
<mask id="mask25_250_20378" style="mask-type:luminance" maskUnits="userSpaceOnUse" x="0" y="0" width="173" height="63">
<path d="M172.989 0H0V62.398H172.989V0Z" fill="white"/>
</mask>
<g mask="url(#mask25_250_20378)">
<path d="M166.543 25.12C166.443 26.589 166.238 27.784 165.933 28.702C165.628 29.618 165.191 30.288 164.623 30.712C164.055 31.133 163.304 31.345 162.373 31.345C161.44 31.345 160.691 31.133 160.122 30.712C159.554 30.288 159.119 29.618 158.813 28.702C158.505 27.785 158.302 26.59 158.2 25.12C158.098 23.647 158.048 21.866 158.048 19.767C158.048 17.669 158.099 15.894 158.2 14.437C158.303 12.982 158.506 11.788 158.813 10.854C159.119 9.92404 159.553 9.24704 160.122 8.82404C160.691 8.40304 161.44 8.19104 162.373 8.19104C163.304 8.19104 164.055 8.40304 164.623 8.82404C165.19 9.24704 165.628 9.92404 165.933 10.854C166.239 11.788 166.444 12.982 166.543 14.437C166.647 15.894 166.696 17.669 166.696 19.767C166.696 21.866 166.646 23.647 166.543 25.12ZM172.662 13.236C172.442 11.242 171.963 9.53004 171.22 8.10303C170.477 6.67703 169.407 5.56204 168.009 4.76204C166.611 3.96204 164.733 3.56104 162.373 3.56104C160.015 3.56104 158.136 3.96204 156.738 4.76204C155.339 5.56204 154.267 6.67703 153.527 8.10303C152.783 9.53103 152.303 11.243 152.084 13.236C151.865 15.233 151.757 17.409 151.757 19.767C151.757 22.126 151.865 24.305 152.084 26.298C152.304 28.293 152.783 30.003 153.527 31.432C154.267 32.856 155.339 33.971 156.738 34.771C158.135 35.572 160.014 35.972 162.373 35.972C164.732 35.972 166.61 35.572 168.009 34.771C169.406 33.971 170.477 32.856 171.22 31.432C171.963 30.002 172.443 28.292 172.662 26.298C172.878 24.305 172.989 22.126 172.989 19.767C172.989 17.409 172.878 15.233 172.662 13.236Z" fill="#263268"/>
</g>
<mask id="mask26_250_20378" style="mask-type:luminance" maskUnits="userSpaceOnUse" x="0" y="0" width="173" height="63">
<path d="M172.989 0H0V62.398H172.989V0Z" fill="white"/>
</mask>
<g mask="url(#mask26_250_20378)">
<path d="M80.7889 48.027L81.4469 44.964H81.4669L82.1229 48.027H80.7889ZM82.3059 43.782H80.6069L78.8049 50.593H80.2349L80.5499 49.151H82.3609L82.6769 50.593H84.1069L82.3059 43.782Z" fill="#263268"/>
</g>
<mask id="mask27_250_20378" style="mask-type:luminance" maskUnits="userSpaceOnUse" x="0" y="0" width="173" height="63">
<path d="M172.989 0H0V62.398H172.989V0Z" fill="white"/>
</mask>
<g mask="url(#mask27_250_20378)">
<path d="M88.058 48.193C87.887 47.966 87.594 47.785 87.18 47.644L86.388 47.376C86.167 47.308 86.017 47.22 85.935 47.119C85.856 47.015 85.817 46.903 85.817 46.775C85.817 46.59 85.878 46.451 86.002 46.36C86.127 46.268 86.27 46.224 86.438 46.224C86.654 46.224 86.804 46.285 86.891 46.412C86.978 46.54 87.019 46.732 87.019 46.992H88.201V46.784C88.201 46.322 88.059 45.962 87.773 45.705C87.487 45.451 87.044 45.323 86.447 45.323C86.112 45.323 85.822 45.365 85.584 45.449C85.345 45.529 85.15 45.641 84.999 45.781C84.846 45.922 84.733 46.088 84.664 46.273C84.595 46.461 84.558 46.66 84.558 46.87C84.558 47.232 84.652 47.53 84.837 47.761C85.021 47.995 85.294 48.173 85.655 48.3L86.582 48.636C86.707 48.686 86.82 48.754 86.915 48.84C87.011 48.926 87.058 49.052 87.058 49.216C87.058 49.42 86.998 49.574 86.877 49.675C86.757 49.775 86.595 49.826 86.39 49.826C86.169 49.826 85.999 49.759 85.88 49.622C85.762 49.484 85.703 49.304 85.703 49.084V48.91H84.521V49.092C84.521 49.34 84.551 49.563 84.608 49.767C84.664 49.965 84.765 50.137 84.907 50.282C85.05 50.424 85.245 50.534 85.489 50.612C85.735 50.686 86.04 50.724 86.41 50.724C86.683 50.724 86.937 50.692 87.173 50.623C87.41 50.555 87.612 50.457 87.779 50.325C87.946 50.188 88.079 50.02 88.175 49.818C88.271 49.614 88.318 49.378 88.318 49.11C88.315 48.725 88.229 48.417 88.058 48.193Z" fill="#263268"/>
</g>
<mask id="mask28_250_20378" style="mask-type:luminance" maskUnits="userSpaceOnUse" x="0" y="0" width="173" height="63">
<path d="M172.989 0H0V62.398H172.989V0Z" fill="white"/>
</mask>
<g mask="url(#mask28_250_20378)">
<path d="M89.2109 50.5921H90.5279V45.4601H89.2109V50.5921ZM89.2109 44.8311H90.5279V43.7061H89.2109V44.8311Z" fill="#263268"/>
</g>
<mask id="mask29_250_20378" style="mask-type:luminance" maskUnits="userSpaceOnUse" x="0" y="0" width="173" height="63">
<path d="M172.989 0H0V62.398H172.989V0Z" fill="white"/>
</mask>
<g mask="url(#mask29_250_20378)">
<path d="M94.0391 49.0379C94.0391 49.1759 94.0131 49.298 93.9641 49.402C93.9121 49.5 93.8481 49.584 93.7661 49.646C93.6881 49.709 93.5991 49.7559 93.5051 49.7879C93.4091 49.8139 93.3161 49.8279 93.2271 49.8279C93.0491 49.8279 92.9211 49.7609 92.8451 49.6199C92.7691 49.4779 92.7321 49.3099 92.7321 49.1119C92.7321 48.8829 92.7901 48.7029 92.9061 48.5709C93.0181 48.4349 93.2111 48.3419 93.4761 48.2809C93.5601 48.2649 93.6511 48.233 93.7521 48.195C93.8551 48.153 93.9511 48.094 94.0391 48.027V49.0379ZM95.3791 50.3779C95.3571 50.3099 95.3391 50.2379 95.3271 50.1619C95.3131 50.0859 95.3051 50.0019 95.3021 49.9129C95.3001 49.8249 95.2981 49.7199 95.2981 49.5999V46.902C95.2981 46.672 95.2731 46.4599 95.2271 46.2649C95.1791 46.0709 95.0881 45.9049 94.9561 45.7669C94.8201 45.6259 94.6331 45.517 94.3861 45.441C94.1431 45.365 93.8261 45.325 93.4401 45.325C93.1911 45.325 92.9571 45.353 92.7381 45.407C92.5191 45.461 92.3261 45.5509 92.1641 45.6749C92.0041 45.7999 91.8731 45.964 91.7781 46.166C91.6851 46.37 91.6341 46.62 91.6341 46.91V47.034H92.8191V46.8919C92.8191 46.6879 92.8681 46.5259 92.9711 46.4039C93.0731 46.2839 93.2251 46.2249 93.4291 46.2249C93.6511 46.2249 93.8081 46.277 93.8991 46.387C93.9941 46.499 94.0401 46.656 94.0401 46.852C94.0401 47.024 94.0011 47.1539 93.9251 47.2439C93.8491 47.3329 93.7131 47.4039 93.5171 47.4529L92.7701 47.6549C92.5421 47.7179 92.3471 47.791 92.1851 47.875C92.0221 47.955 91.8891 48.057 91.7841 48.186C91.6801 48.308 91.6011 48.457 91.5501 48.632C91.5011 48.808 91.4741 49.0139 91.4741 49.2579C91.4741 49.4279 91.4961 49.603 91.5401 49.777C91.5861 49.953 91.6561 50.111 91.7511 50.248C91.8481 50.388 91.9731 50.504 92.1341 50.594C92.2901 50.682 92.4851 50.727 92.7141 50.727C93.0321 50.727 93.2931 50.682 93.4921 50.594C93.6911 50.504 93.8701 50.328 94.0201 50.06H94.0411C94.0591 50.148 94.0811 50.241 94.1031 50.331C94.1251 50.423 94.1581 50.511 94.2051 50.595H95.4631C95.4281 50.516 95.4011 50.4449 95.3791 50.3779Z" fill="#263268"/>
</g>
<mask id="mask30_250_20378" style="mask-type:luminance" maskUnits="userSpaceOnUse" x="0" y="0" width="173" height="63">
<path d="M172.989 0H0V62.398H172.989V0Z" fill="white"/>
</mask>
<g mask="url(#mask30_250_20378)">
<path d="M99.9729 45.674C99.7439 45.443 99.4219 45.324 99.0079 45.324C98.7299 45.324 98.4769 45.384 98.2489 45.502C98.0249 45.62 97.8409 45.807 97.6989 46.061H97.6829V45.46H96.4219V50.592H97.7379V47.186C97.7379 46.62 97.9689 46.337 98.4359 46.337C98.6319 46.337 98.7739 46.391 98.8629 46.499C98.9529 46.607 98.9969 46.793 98.9969 47.054V50.592H100.313V46.785C100.314 46.275 100.201 45.907 99.9729 45.674Z" fill="#263268"/>
</g>
<mask id="mask31_250_20378" style="mask-type:luminance" maskUnits="userSpaceOnUse" x="0" y="0" width="173" height="63">
<path d="M172.989 0H0V62.398H172.989V0Z" fill="white"/>
</mask>
<g mask="url(#mask31_250_20378)">
<path d="M106.549 46.614C106.381 46.78 106.159 46.862 105.886 46.862H105.276V44.791H105.847C106.193 44.791 106.435 44.883 106.583 45.064C106.728 45.245 106.802 45.504 106.802 45.843C106.802 46.193 106.719 46.448 106.549 46.614ZM108.08 45.073C108.016 44.829 107.911 44.612 107.765 44.42C107.619 44.231 107.427 44.076 107.189 43.956C106.951 43.842 106.655 43.782 106.305 43.782H103.903V50.593H105.276V47.875H106.009C106.334 47.875 106.63 47.831 106.898 47.749C107.165 47.667 107.391 47.545 107.58 47.377C107.768 47.213 107.912 47 108.018 46.744C108.124 46.486 108.176 46.181 108.176 45.823C108.176 45.569 108.144 45.319 108.08 45.073Z" fill="#263268"/>
</g>
<mask id="mask32_250_20378" style="mask-type:luminance" maskUnits="userSpaceOnUse" x="0" y="0" width="173" height="63">
<path d="M172.989 0H0V62.398H172.989V0Z" fill="white"/>
</mask>
<g mask="url(#mask32_250_20378)">
<path d="M112.553 45.674C112.324 45.443 112.005 45.324 111.59 45.324C111.311 45.324 111.064 45.38 110.852 45.486C110.638 45.594 110.469 45.76 110.34 45.984H110.32V43.781H109.005V50.592H110.32V47.186C110.32 46.62 110.554 46.337 111.016 46.337C111.213 46.337 111.359 46.391 111.447 46.499C111.537 46.607 111.581 46.793 111.581 47.054V50.592H112.898V46.785C112.898 46.275 112.782 45.907 112.553 45.674Z" fill="#263268"/>
</g>
<mask id="mask33_250_20378" style="mask-type:luminance" maskUnits="userSpaceOnUse" x="0" y="0" width="173" height="63">
<path d="M172.989 0H0V62.398H172.989V0Z" fill="white"/>
</mask>
<g mask="url(#mask33_250_20378)">
<path d="M116.399 45.46L115.729 49.009H115.712L114.948 45.46H113.575L115.014 50.592C114.994 50.821 114.933 50.998 114.827 51.127C114.723 51.253 114.548 51.315 114.306 51.315C114.193 51.315 114.077 51.307 113.963 51.29V52.27H114.494C114.803 52.27 115.054 52.248 115.256 52.204C115.455 52.16 115.628 52.068 115.771 51.92C115.915 51.778 116.038 51.578 116.143 51.314C116.247 51.048 116.357 50.694 116.469 50.248L117.711 45.462H116.399V45.46Z" fill="#263268"/>
</g>
<mask id="mask34_250_20378" style="mask-type:luminance" maskUnits="userSpaceOnUse" x="0" y="0" width="173" height="63">
<path d="M172.989 0H0V62.398H172.989V0Z" fill="white"/>
</mask>
<g mask="url(#mask34_250_20378)">
<path d="M121.712 48.193C121.54 47.966 121.247 47.785 120.832 47.644L120.043 47.376C119.817 47.308 119.669 47.22 119.59 47.119C119.508 47.015 119.47 46.903 119.47 46.775C119.47 46.59 119.531 46.451 119.656 46.36C119.779 46.268 119.925 46.224 120.09 46.224C120.307 46.224 120.457 46.285 120.543 46.412C120.629 46.539 120.671 46.732 120.671 46.992H121.856V46.784C121.856 46.322 121.713 45.962 121.425 45.705C121.139 45.451 120.698 45.323 120.101 45.323C119.763 45.323 119.475 45.365 119.237 45.449C118.998 45.529 118.803 45.641 118.65 45.781C118.499 45.922 118.387 46.088 118.315 46.273C118.247 46.461 118.211 46.66 118.211 46.87C118.211 47.232 118.303 47.53 118.486 47.761C118.672 47.995 118.945 48.173 119.307 48.3L120.232 48.636C120.361 48.686 120.471 48.754 120.568 48.84C120.661 48.926 120.71 49.052 120.71 49.216C120.71 49.42 120.649 49.574 120.529 49.675C120.407 49.775 120.246 49.826 120.044 49.826C119.818 49.826 119.65 49.759 119.531 49.622C119.413 49.484 119.356 49.304 119.356 49.084V48.91H118.171V49.092C118.171 49.34 118.2 49.563 118.258 49.767C118.314 49.965 118.416 50.137 118.558 50.282C118.702 50.424 118.896 50.534 119.139 50.612C119.386 50.686 119.693 50.724 120.06 50.724C120.333 50.724 120.589 50.692 120.823 50.623C121.06 50.555 121.261 50.457 121.428 50.325C121.598 50.188 121.73 50.02 121.825 49.818C121.92 49.614 121.968 49.378 121.968 49.11C121.968 48.725 121.881 48.417 121.712 48.193Z" fill="#263268"/>
</g>
<mask id="mask35_250_20378" style="mask-type:luminance" maskUnits="userSpaceOnUse" x="0" y="0" width="173" height="63">
<path d="M172.989 0H0V62.398H172.989V0Z" fill="white"/>
</mask>
<g mask="url(#mask35_250_20378)">
<path d="M122.867 50.5921H124.18V45.4601H122.867V50.5921ZM122.867 44.8311H124.18V43.7061H122.867V44.8311Z" fill="#263268"/>
</g>
<mask id="mask36_250_20378" style="mask-type:luminance" maskUnits="userSpaceOnUse" x="0" y="0" width="173" height="63">
<path d="M172.989 0H0V62.398H172.989V0Z" fill="white"/>
</mask>
<g mask="url(#mask36_250_20378)">
<path d="M127.615 49.5429C127.514 49.7309 127.352 49.827 127.127 49.827C126.982 49.827 126.864 49.793 126.771 49.727C126.68 49.659 126.609 49.555 126.557 49.409C126.506 49.261 126.471 49.0769 126.452 48.8499C126.434 48.6219 126.426 48.3519 126.426 48.0359C126.426 47.7419 126.435 47.483 126.452 47.264C126.472 47.037 126.507 46.858 126.557 46.713C126.609 46.571 126.683 46.463 126.782 46.389C126.88 46.317 127.011 46.2789 127.178 46.2789C127.298 46.2789 127.398 46.309 127.48 46.372C127.558 46.432 127.62 46.51 127.659 46.608C127.701 46.706 127.731 46.82 127.746 46.944C127.763 47.066 127.769 47.188 127.769 47.31H129.028C129.028 46.698 128.875 46.217 128.567 45.859C128.257 45.505 127.799 45.325 127.189 45.325C126.883 45.325 126.603 45.369 126.349 45.451C126.093 45.533 125.873 45.68 125.69 45.886C125.504 46.092 125.363 46.368 125.261 46.714C125.159 47.063 125.108 47.497 125.108 48.027C125.108 48.541 125.15 48.971 125.231 49.318C125.315 49.666 125.437 49.9419 125.6 50.1479C125.76 50.3539 125.964 50.5019 126.211 50.5919C126.455 50.6799 126.742 50.7249 127.072 50.7249C127.771 50.7249 128.274 50.544 128.574 50.18C128.877 49.82 129.027 49.3009 129.027 48.6269H127.768C127.768 49.0449 127.717 49.3489 127.615 49.5429Z" fill="#263268"/>
</g>
<mask id="mask37_250_20378" style="mask-type:luminance" maskUnits="userSpaceOnUse" x="0" y="0" width="173" height="63">
<path d="M172.989 0H0V62.398H172.989V0Z" fill="white"/>
</mask>
<g mask="url(#mask37_250_20378)">
<path d="M133.224 48.193C133.054 47.966 132.761 47.785 132.348 47.644L131.555 47.376C131.332 47.308 131.181 47.22 131.102 47.119C131.024 47.015 130.984 46.903 130.984 46.775C130.984 46.59 131.045 46.451 131.169 46.36C131.294 46.268 131.437 46.224 131.605 46.224C131.819 46.224 131.972 46.285 132.058 46.412C132.144 46.539 132.187 46.732 132.187 46.992H133.368V46.784C133.368 46.322 133.225 45.962 132.939 45.705C132.654 45.451 132.21 45.323 131.613 45.323C131.278 45.323 130.99 45.365 130.752 45.449C130.513 45.529 130.315 45.641 130.165 45.781C130.013 45.922 129.899 46.088 129.831 46.273C129.762 46.461 129.725 46.66 129.725 46.87C129.725 47.232 129.819 47.53 130.003 47.761C130.188 47.995 130.461 48.173 130.823 48.3L131.749 48.636C131.874 48.686 131.987 48.754 132.081 48.84C132.177 48.926 132.223 49.052 132.223 49.216C132.223 49.42 132.165 49.574 132.043 49.675C131.924 49.775 131.761 49.826 131.557 49.826C131.334 49.826 131.165 49.759 131.046 49.622C130.929 49.484 130.87 49.304 130.87 49.084V48.91H129.688V49.092C129.688 49.34 129.714 49.563 129.774 49.767C129.831 49.965 129.931 50.137 130.074 50.282C130.218 50.424 130.411 50.534 130.655 50.612C130.899 50.686 131.207 50.724 131.576 50.724C131.849 50.724 132.102 50.692 132.339 50.623C132.573 50.555 132.776 50.457 132.944 50.325C133.112 50.188 133.246 50.02 133.34 49.818C133.437 49.614 133.484 49.378 133.484 49.11C133.482 48.725 133.396 48.417 133.224 48.193Z" fill="#263268"/>
</g>
<mask id="mask38_250_20378" style="mask-type:luminance" maskUnits="userSpaceOnUse" x="0" y="0" width="173" height="63">
<path d="M172.989 0H0V62.398H172.989V0Z" fill="white"/>
</mask>
<g mask="url(#mask38_250_20378)">
<path d="M139.935 48.353C139.914 48.675 139.87 48.937 139.802 49.137C139.737 49.337 139.64 49.484 139.515 49.575C139.391 49.667 139.229 49.716 139.025 49.716C138.821 49.716 138.658 49.667 138.533 49.575C138.41 49.483 138.312 49.337 138.248 49.137C138.181 48.937 138.136 48.675 138.114 48.353C138.093 48.035 138.079 47.644 138.079 47.186C138.079 46.728 138.093 46.341 138.114 46.023C138.135 45.705 138.18 45.443 138.248 45.241C138.312 45.037 138.41 44.89 138.533 44.797C138.658 44.706 138.821 44.658 139.025 44.658C139.229 44.658 139.391 44.706 139.515 44.797C139.64 44.891 139.737 45.037 139.802 45.241C139.869 45.443 139.913 45.705 139.935 46.023C139.957 46.341 139.97 46.728 139.97 47.186C139.97 47.644 139.957 48.035 139.935 48.353ZM141.269 45.761C141.222 45.324 141.118 44.95 140.957 44.638C140.794 44.327 140.561 44.085 140.255 43.909C139.95 43.734 139.539 43.646 139.025 43.646C138.511 43.646 138.099 43.734 137.793 43.909C137.489 44.085 137.255 44.327 137.092 44.638C136.93 44.951 136.826 45.325 136.779 45.761C136.73 46.197 136.705 46.671 136.705 47.186C136.705 47.701 136.73 48.176 136.779 48.611C136.826 49.048 136.929 49.422 137.092 49.732C137.255 50.046 137.489 50.289 137.793 50.464C138.1 50.638 138.511 50.725 139.025 50.725C139.539 50.725 139.951 50.638 140.255 50.464C140.561 50.288 140.794 50.046 140.957 49.732C141.117 49.421 141.222 49.047 141.269 48.611C141.32 48.176 141.343 47.701 141.343 47.186C141.343 46.671 141.319 46.197 141.269 45.761Z" fill="#263268"/>
</g>
<mask id="mask39_250_20378" style="mask-type:luminance" maskUnits="userSpaceOnUse" x="0" y="0" width="173" height="63">
<path d="M172.989 0H0V62.398H172.989V0Z" fill="white"/>
</mask>
<g mask="url(#mask39_250_20378)">
<path d="M143.67 43.782H142.353V50.593H143.67V43.782Z" fill="#263268"/>
</g>
<mask id="mask40_250_20378" style="mask-type:luminance" maskUnits="userSpaceOnUse" x="0" y="0" width="173" height="63">
<path d="M172.989 0H0V62.398H172.989V0Z" fill="white"/>
</mask>
<g mask="url(#mask40_250_20378)">
<path d="M147.218 45.46L146.55 49.009H146.531L145.766 45.46H144.394L145.833 50.592C145.816 50.821 145.755 50.998 145.648 51.127C145.542 51.253 145.37 51.315 145.127 51.315C145.012 51.315 144.898 51.307 144.783 51.29V52.27H145.317C145.622 52.27 145.877 52.248 146.076 52.204C146.277 52.16 146.447 52.068 146.592 51.92C146.736 51.778 146.859 51.578 146.965 51.314C147.068 51.048 147.179 50.694 147.292 50.248L148.532 45.462H147.218V45.46Z" fill="#263268"/>
</g>
<mask id="mask41_250_20378" style="mask-type:luminance" maskUnits="userSpaceOnUse" x="0" y="0" width="173" height="63">
<path d="M172.989 0H0V62.398H172.989V0Z" fill="white"/>
</mask>
<g mask="url(#mask41_250_20378)">
<path d="M155.256 45.7229C155.047 45.4579 154.724 45.325 154.286 45.325C153.975 45.325 153.707 45.395 153.48 45.533C153.252 45.667 153.091 45.871 152.989 46.145H152.97C152.898 45.879 152.761 45.674 152.554 45.535C152.348 45.397 152.091 45.325 151.786 45.325C151.505 45.325 151.262 45.377 151.053 45.479C150.844 45.583 150.655 45.749 150.49 45.985H150.469V45.4599H149.211V50.5919H150.528V47.214C150.528 46.915 150.589 46.6929 150.712 46.5509C150.837 46.4069 151.003 46.337 151.215 46.337C151.397 46.337 151.53 46.3929 151.61 46.5089C151.691 46.6229 151.73 46.7869 151.73 47.0029V50.5919H153.044V47.214C153.044 46.915 153.108 46.6929 153.231 46.5509C153.355 46.4069 153.522 46.337 153.734 46.337C153.917 46.337 154.048 46.3929 154.129 46.5089C154.209 46.6229 154.249 46.7869 154.249 47.0029V50.5919H155.562V46.8619C155.563 46.3679 155.46 45.9849 155.256 45.7229Z" fill="#263268"/>
</g>
<mask id="mask42_250_20378" style="mask-type:luminance" maskUnits="userSpaceOnUse" x="0" y="0" width="173" height="63">
<path d="M172.989 0H0V62.398H172.989V0Z" fill="white"/>
</mask>
<g mask="url(#mask42_250_20378)">
<path d="M159.205 49.29C159.119 49.572 158.931 49.717 158.645 49.717C158.352 49.717 158.163 49.572 158.077 49.29C157.994 49.006 157.949 48.586 157.949 48.027C157.949 47.464 157.994 47.044 158.077 46.761C158.163 46.479 158.352 46.337 158.645 46.337C158.93 46.337 159.119 46.479 159.205 46.761C159.289 47.043 159.333 47.464 159.333 48.027C159.333 48.585 159.289 49.005 159.205 49.29ZM160.269 45.961C160.013 45.536 159.617 45.324 159.074 45.324C158.814 45.324 158.593 45.38 158.408 45.482C158.223 45.587 158.058 45.762 157.913 46.001H157.892V45.46H156.632V52.27H157.949V50.114H157.969C158.111 50.318 158.266 50.47 158.442 50.573C158.617 50.675 158.828 50.725 159.074 50.725C159.617 50.725 160.013 50.512 160.269 50.092C160.522 49.667 160.65 48.979 160.65 48.027C160.649 47.07 160.521 46.383 160.269 45.961Z" fill="#263268"/>
</g>
<mask id="mask43_250_20378" style="mask-type:luminance" maskUnits="userSpaceOnUse" x="0" y="0" width="173" height="63">
<path d="M172.989 0H0V62.398H172.989V0Z" fill="white"/>
</mask>
<g mask="url(#mask43_250_20378)">
<path d="M161.64 50.5921H162.957V45.4601H161.64V50.5921ZM161.64 44.8311H162.957V43.7061H161.64V44.8311Z" fill="#263268"/>
</g>
<mask id="mask44_250_20378" style="mask-type:luminance" maskUnits="userSpaceOnUse" x="0" y="0" width="173" height="63">
<path d="M172.989 0H0V62.398H172.989V0Z" fill="white"/>
</mask>
<g mask="url(#mask44_250_20378)">
<path d="M166.467 49.0379C166.467 49.1759 166.444 49.298 166.392 49.402C166.339 49.5 166.276 49.584 166.195 49.646C166.116 49.709 166.03 49.7559 165.933 49.7879C165.838 49.8139 165.746 49.8279 165.658 49.8279C165.478 49.8279 165.353 49.7609 165.276 49.6199C165.2 49.4779 165.161 49.3099 165.161 49.1119C165.161 48.8829 165.219 48.7029 165.333 48.5709C165.446 48.4349 165.639 48.3419 165.904 48.2809C165.988 48.2649 166.08 48.233 166.182 48.195C166.284 48.153 166.379 48.094 166.467 48.027V49.0379ZM167.807 50.3779C167.785 50.3099 167.768 50.2379 167.755 50.1619C167.742 50.0859 167.735 50.0019 167.731 49.9129C167.729 49.8249 167.726 49.7199 167.726 49.5999V46.902C167.726 46.672 167.704 46.4599 167.655 46.2649C167.608 46.0709 167.516 45.9049 167.384 45.7669C167.25 45.6259 167.06 45.517 166.815 45.441C166.571 45.365 166.253 45.325 165.868 45.325C165.619 45.325 165.386 45.353 165.166 45.407C164.947 45.461 164.757 45.5509 164.595 45.6749C164.433 45.7999 164.302 45.964 164.209 46.166C164.111 46.37 164.065 46.62 164.065 46.91V47.034H165.247V46.8919C165.247 46.6879 165.299 46.5259 165.399 46.4039C165.502 46.2839 165.652 46.2249 165.857 46.2249C166.08 46.2249 166.237 46.277 166.33 46.387C166.422 46.499 166.468 46.656 166.468 46.852C166.468 47.024 166.433 47.1539 166.353 47.2439C166.277 47.3329 166.141 47.4039 165.945 47.4529L165.201 47.6549C164.972 47.7179 164.776 47.791 164.614 47.875C164.451 47.955 164.317 48.057 164.215 48.186C164.109 48.308 164.029 48.457 163.981 48.632C163.929 48.808 163.905 49.0139 163.905 49.2579C163.905 49.4279 163.927 49.603 163.97 49.777C164.015 49.953 164.084 50.111 164.18 50.248C164.276 50.388 164.405 50.504 164.561 50.594C164.721 50.682 164.914 50.727 165.143 50.727C165.461 50.727 165.722 50.682 165.921 50.594C166.123 50.504 166.297 50.328 166.449 50.06H166.469C166.49 50.148 166.509 50.241 166.532 50.331C166.554 50.423 166.588 50.511 166.634 50.595H167.891C167.856 50.516 167.828 50.4449 167.807 50.3779Z" fill="#263268"/>
</g>
<mask id="mask45_250_20378" style="mask-type:luminance" maskUnits="userSpaceOnUse" x="0" y="0" width="173" height="63">
<path d="M172.989 0H0V62.398H172.989V0Z" fill="white"/>
</mask>
<g mask="url(#mask45_250_20378)">
<path d="M171.298 49.29C171.214 49.572 171.024 49.717 170.731 49.717C170.446 49.717 170.259 49.572 170.173 49.29C170.086 49.006 170.044 48.586 170.044 48.027C170.044 47.464 170.086 47.044 170.173 46.761C170.259 46.479 170.445 46.335 170.731 46.335C171.024 46.335 171.214 46.479 171.298 46.761C171.384 47.043 171.429 47.464 171.429 48.027C171.429 48.585 171.384 49.005 171.298 49.29ZM171.429 43.782V45.937H171.409C171.267 45.735 171.109 45.583 170.935 45.479C170.76 45.376 170.549 45.325 170.3 45.325C169.76 45.325 169.362 45.537 169.109 45.962C168.856 46.384 168.726 47.07 168.726 48.027C168.726 48.979 168.856 49.668 169.109 50.09C169.362 50.512 169.76 50.725 170.3 50.725C170.561 50.725 170.784 50.672 170.969 50.567C171.155 50.464 171.32 50.289 171.464 50.046H171.485V50.592H172.743V43.781H171.429V43.782Z" fill="#263268"/>
</g>
<mask id="mask46_250_20378" style="mask-type:luminance" maskUnits="userSpaceOnUse" x="0" y="0" width="173" height="63">
<path d="M172.989 0H0V62.398H172.989V0Z" fill="white"/>
</mask>
<g mask="url(#mask46_250_20378)">
<path d="M81.7519 58.7209C81.7259 59.0069 81.6599 59.2689 81.5599 59.5029C81.4599 59.7389 81.3149 59.9319 81.1239 60.0809C80.9309 60.2329 80.6729 60.3109 80.3479 60.3109H79.5599V55.4229H80.3479C80.6919 55.4229 80.9599 55.4969 81.1549 55.6409C81.3489 55.7859 81.4909 55.9759 81.5859 56.2049C81.6809 56.4389 81.7379 56.6999 81.7619 56.9919C81.7859 57.2839 81.7969 57.5779 81.7969 57.8749C81.7969 58.1479 81.7839 58.4299 81.7519 58.7209ZM82.5169 56.6749C82.4719 56.3049 82.3749 55.9789 82.2249 55.7019C82.0749 55.4259 81.8619 55.2059 81.5759 55.0479C81.2939 54.8879 80.9169 54.8059 80.4419 54.8059H78.8049V60.9239H80.5179C80.9349 60.9239 81.2789 60.8399 81.5479 60.6639C81.8159 60.4909 82.0269 60.2599 82.1809 59.9759C82.3359 59.6879 82.4419 59.3629 82.4989 58.9969C82.5569 58.6329 82.5849 58.2569 82.5849 57.8659C82.5859 57.4439 82.5619 57.0469 82.5169 56.6749Z" fill="#263268"/>
</g>
<mask id="mask47_250_20378" style="mask-type:luminance" maskUnits="userSpaceOnUse" x="0" y="0" width="173" height="63">
<path d="M172.989 0H0V62.398H172.989V0Z" fill="white"/>
</mask>
<g mask="url(#mask47_250_20378)">
<path d="M86.6469 57.2109C86.6359 57.0429 86.5929 56.8829 86.5179 56.7339C86.4439 56.5869 86.3279 56.4629 86.1669 56.3619C86.0069 56.2599 85.7799 56.2119 85.4799 56.2119C85.3779 56.2119 85.2719 56.2289 85.1599 56.2609C85.0479 56.2899 84.9439 56.3339 84.8419 56.3929C84.7419 56.4489 84.6529 56.5189 84.5689 56.5989C84.4869 56.6769 84.4229 56.7649 84.3779 56.8549H84.3579V54.8059H83.6399V60.9239H84.3579V57.7539C84.3579 57.5879 84.3869 57.4489 84.4429 57.3289C84.5029 57.2129 84.5769 57.1169 84.6669 57.0449C84.7589 56.9689 84.8569 56.9149 84.9629 56.8809C85.0679 56.8449 85.1689 56.8289 85.2659 56.8289C85.4279 56.8289 85.5539 56.8629 85.6429 56.9229C85.7359 56.9859 85.8029 57.0659 85.8499 57.1589C85.8949 57.2529 85.9239 57.3549 85.9309 57.4629C85.9409 57.5709 85.9419 57.6699 85.9419 57.7539V60.9239H86.6629V57.6699C86.6639 57.5319 86.6569 57.3789 86.6469 57.2109Z" fill="#263268"/>
</g>
<mask id="mask48_250_20378" style="mask-type:luminance" maskUnits="userSpaceOnUse" x="0" y="0" width="173" height="63">
<path d="M172.989 0H0V62.398H172.989V0Z" fill="white"/>
</mask>
<g mask="url(#mask48_250_20378)">
<path d="M89.8871 59.6049C89.8871 59.7249 89.8621 59.8369 89.8091 59.9459C89.7591 60.0519 89.6911 60.1439 89.6051 60.2219C89.5201 60.3039 89.4191 60.3679 89.3081 60.4109C89.1971 60.4579 89.0801 60.4809 88.9621 60.4809C88.7151 60.4809 88.5471 60.4069 88.4511 60.2629C88.3571 60.1149 88.3091 59.9239 88.3091 59.6909C88.3091 59.4929 88.3401 59.3379 88.3991 59.2319C88.4621 59.1279 88.5461 59.0379 88.6601 58.9619C88.7411 58.9109 88.8381 58.8669 88.9531 58.8329C89.0661 58.7999 89.1811 58.7659 89.2961 58.7259C89.4101 58.6879 89.5201 58.6459 89.6271 58.5979C89.7311 58.5509 89.8181 58.4919 89.8871 58.4229V59.6049ZM90.9371 60.4499C90.9111 60.4609 90.8751 60.4629 90.8301 60.4629C90.7171 60.4629 90.6501 60.4289 90.6331 60.3549C90.6171 60.2789 90.6081 60.1929 90.6081 60.0949V57.5319C90.6081 57.4139 90.6011 57.2779 90.5871 57.1259C90.5721 56.9759 90.5211 56.8299 90.4331 56.6909C90.3451 56.5569 90.2051 56.4409 90.0181 56.3509C89.8311 56.2569 89.5601 56.2119 89.2101 56.2119C88.6621 56.2119 88.2691 56.3319 88.0291 56.5759C87.7891 56.8179 87.6681 57.2009 87.6681 57.7219H88.3891V57.6779C88.3891 57.6399 88.3951 57.5679 88.4021 57.4679C88.4121 57.3669 88.4401 57.2659 88.4871 57.1629C88.5381 57.0599 88.6131 56.9709 88.7201 56.8919C88.8241 56.8159 88.9781 56.7779 89.1771 56.7779C89.4161 56.7779 89.6001 56.8349 89.7261 56.9549C89.8521 57.0709 89.9161 57.2369 89.9161 57.4549C89.9161 57.5539 89.9111 57.6359 89.9051 57.7029C89.9011 57.7709 89.8831 57.8319 89.8491 57.8839C89.8181 57.9359 89.7681 57.9819 89.6961 58.0259C89.6231 58.0679 89.5231 58.1079 89.3911 58.1479L88.4221 58.4409C88.1251 58.5349 87.9071 58.6849 87.7661 58.8989C87.6271 59.1129 87.5581 59.3829 87.5581 59.7099C87.5581 60.1199 87.6581 60.4459 87.8621 60.6869C88.0641 60.9249 88.3801 61.0469 88.8091 61.0469C89.0261 61.0469 89.2361 60.9889 89.4381 60.8709C89.6421 60.7549 89.7981 60.5949 89.9161 60.3889H89.9331C89.9381 60.5369 89.9631 60.6509 90.0081 60.7289C90.0561 60.8089 90.1081 60.8699 90.1671 60.9059C90.2261 60.9439 90.2951 60.9639 90.3691 60.9689C90.4421 60.9749 90.5141 60.9769 90.5821 60.9769C90.6751 60.9769 90.7611 60.9729 90.8421 60.9629C90.9201 60.9489 90.9751 60.9429 91.0031 60.9369V60.4199C90.9831 60.4319 90.9631 60.4399 90.9371 60.4499Z" fill="#263268"/>
</g>
<mask id="mask49_250_20378" style="mask-type:luminance" maskUnits="userSpaceOnUse" x="0" y="0" width="173" height="63">
<path d="M172.989 0H0V62.398H172.989V0Z" fill="white"/>
</mask>
<g mask="url(#mask49_250_20378)">
<path d="M94.7649 57.2109C94.7519 57.0429 94.7089 56.8829 94.6349 56.7339C94.5609 56.5869 94.4449 56.4629 94.2829 56.3619C94.1239 56.2599 93.8949 56.2119 93.5959 56.2119C93.4929 56.2119 93.3869 56.2289 93.2759 56.2609C93.1649 56.2899 93.0579 56.3339 92.9589 56.3929C92.8579 56.4489 92.7689 56.5189 92.6859 56.5989C92.6019 56.6769 92.5389 56.7649 92.4939 56.8549H92.4739V54.8059H91.7549V60.9239H92.4739V57.7539C92.4739 57.5879 92.5029 57.4489 92.5599 57.3289C92.6199 57.2129 92.6919 57.1169 92.7829 57.0449C92.8769 56.9689 92.9719 56.9149 93.0799 56.8809C93.1849 56.8449 93.2859 56.8289 93.3839 56.8289C93.5459 56.8289 93.6719 56.8629 93.7619 56.9229C93.8549 56.9859 93.9199 57.0659 93.9679 57.1589C94.0139 57.2529 94.0409 57.3549 94.0489 57.4629C94.0589 57.5709 94.0609 57.6699 94.0609 57.7539V60.9239H94.7819V57.6699C94.7799 57.5319 94.7729 57.3789 94.7649 57.2109Z" fill="#263268"/>
</g>
<mask id="mask50_250_20378" style="mask-type:luminance" maskUnits="userSpaceOnUse" x="0" y="0" width="173" height="63">
<path d="M172.989 0H0V62.398H172.989V0Z" fill="white"/>
</mask>
<g mask="url(#mask50_250_20378)">
<path d="M97.6261 56.2119C97.4931 56.2119 97.3801 56.2339 97.2791 56.2749C97.1781 56.3189 97.0901 56.3779 97.0141 56.4529C96.9361 56.5269 96.8671 56.6129 96.8021 56.7119C96.7401 56.8079 96.6831 56.9119 96.6311 57.0199H96.6141V56.3329H95.8921V60.9249H96.6141V58.0199C96.6141 57.8319 96.6441 57.6699 96.7121 57.5319C96.7781 57.3959 96.8591 57.2839 96.9511 57.1939C97.0461 57.1039 97.1481 57.0399 97.2581 56.9979C97.3631 56.9559 97.4641 56.9339 97.5571 56.9339C97.6701 56.9339 97.7561 56.9379 97.8111 56.9469C97.8641 56.9569 97.9091 56.9649 97.9441 56.9679V56.2659C97.8761 56.2289 97.7691 56.2119 97.6261 56.2119Z" fill="#263268"/>
</g>
<mask id="mask51_250_20378" style="mask-type:luminance" maskUnits="userSpaceOnUse" x="0" y="0" width="173" height="63">
<path d="M172.989 0H0V62.398H172.989V0Z" fill="white"/>
</mask>
<g mask="url(#mask51_250_20378)">
<path d="M100.711 59.6049C100.711 59.7249 100.685 59.8369 100.633 59.9459C100.583 60.0519 100.514 60.1439 100.429 60.2219C100.344 60.3039 100.243 60.3679 100.132 60.4109C100.021 60.4579 99.9061 60.4809 99.7861 60.4809C99.5391 60.4809 99.3711 60.4069 99.2751 60.2629C99.1801 60.1149 99.1351 59.9239 99.1351 59.6909C99.1351 59.4929 99.1631 59.3379 99.2221 59.2319C99.2851 59.1279 99.3701 59.0379 99.4871 58.9619C99.5651 58.9109 99.6621 58.8669 99.7761 58.8329C99.8891 58.7999 100.005 58.7659 100.12 58.7259C100.234 58.6879 100.344 58.6459 100.45 58.5979C100.554 58.5509 100.642 58.4919 100.711 58.4229V59.6049ZM101.761 60.4499C101.734 60.4609 101.699 60.4629 101.654 60.4629C101.541 60.4629 101.474 60.4289 101.458 60.3549C101.441 60.2789 101.431 60.1929 101.431 60.0949V57.5319C101.431 57.4139 101.425 57.2779 101.41 57.1259C101.395 56.9759 101.347 56.8299 101.257 56.6909C101.168 56.5569 101.03 56.4409 100.84 56.3509C100.653 56.2569 100.383 56.2119 100.035 56.2119C99.4881 56.2119 99.0921 56.3319 98.8511 56.5759C98.6121 56.8179 98.4931 57.2009 98.4931 57.7219H99.2121V57.6779C99.2121 57.6399 99.2181 57.5679 99.2241 57.4679C99.2341 57.3669 99.2621 57.2659 99.3121 57.1629C99.3611 57.0599 99.4361 56.9709 99.5421 56.8919C99.6461 56.8159 99.8001 56.7779 100 56.7779C100.239 56.7779 100.423 56.8349 100.548 56.9549C100.674 57.0709 100.738 57.2369 100.738 57.4549C100.738 57.5539 100.734 57.6359 100.727 57.7029C100.723 57.7709 100.705 57.8319 100.673 57.8839C100.64 57.9359 100.59 57.9819 100.519 58.0259C100.449 58.0679 100.346 58.1079 100.215 58.1479L99.2451 58.4409C98.9471 58.5349 98.7291 58.6849 98.5901 58.8989C98.4511 59.1129 98.3811 59.3829 98.3811 59.7099C98.3811 60.1199 98.4811 60.4459 98.6851 60.6869C98.8861 60.9249 99.2031 61.0469 99.6321 61.0469C99.8481 61.0469 100.059 60.9889 100.26 60.8709C100.465 60.7549 100.624 60.5949 100.738 60.3889H100.756C100.76 60.5369 100.786 60.6509 100.831 60.7289C100.878 60.8089 100.931 60.8699 100.989 60.9059C101.052 60.9439 101.117 60.9639 101.191 60.9689C101.265 60.9739 101.339 60.9769 101.407 60.9769C101.498 60.9769 101.583 60.9729 101.665 60.9629C101.742 60.9489 101.797 60.9429 101.826 60.9369V60.4199C101.808 60.4319 101.786 60.4399 101.761 60.4499Z" fill="#263268"/>
</g>
<mask id="mask52_250_20378" style="mask-type:luminance" maskUnits="userSpaceOnUse" x="0" y="0" width="173" height="63">
<path d="M172.989 0H0V62.398H172.989V0Z" fill="white"/>
</mask>
<g mask="url(#mask52_250_20378)">
<path d="M105.588 57.2109C105.577 57.0429 105.531 56.8829 105.456 56.7339C105.377 56.5869 105.259 56.4629 105.095 56.3619C104.934 56.2599 104.699 56.2119 104.397 56.2119C104.174 56.2119 103.956 56.2689 103.745 56.3829C103.534 56.4989 103.379 56.6609 103.282 56.8729H103.265V56.3319H102.578V60.9239H103.3V57.7539C103.3 57.5879 103.329 57.4489 103.386 57.3289C103.443 57.2129 103.517 57.1169 103.61 57.0449C103.7 56.9689 103.8 56.9149 103.904 56.8809C104.011 56.8449 104.11 56.8289 104.208 56.8289C104.369 56.8289 104.495 56.8629 104.586 56.9229C104.678 56.9859 104.747 57.0659 104.792 57.1589C104.837 57.2519 104.866 57.3549 104.872 57.4629C104.882 57.5709 104.886 57.6699 104.886 57.7539V60.9239H105.606V57.6699C105.604 57.5319 105.6 57.3789 105.588 57.2109Z" fill="#263268"/>
</g>
<mask id="mask53_250_20378" style="mask-type:luminance" maskUnits="userSpaceOnUse" x="0" y="0" width="173" height="63">
<path d="M172.989 0H0V62.398H172.989V0Z" fill="white"/>
</mask>
<g mask="url(#mask53_250_20378)">
<path d="M116.176 58.354C116.033 58.144 115.856 57.978 115.642 57.858C115.426 57.738 115.197 57.644 114.948 57.572C114.698 57.502 114.469 57.418 114.254 57.328C114.038 57.236 113.86 57.112 113.719 56.958C113.578 56.804 113.505 56.586 113.505 56.3C113.505 55.974 113.593 55.727 113.77 55.559C113.947 55.389 114.196 55.305 114.516 55.305C114.691 55.305 114.841 55.333 114.965 55.387C115.087 55.441 115.188 55.515 115.261 55.612C115.334 55.702 115.387 55.82 115.419 55.952C115.451 56.088 115.467 56.236 115.467 56.394H116.219C116.208 55.83 116.068 55.401 115.798 55.117C115.525 54.833 115.095 54.687 114.507 54.687C114.117 54.687 113.806 54.749 113.571 54.873C113.339 54.995 113.155 55.147 113.027 55.323C112.899 55.5 112.814 55.683 112.776 55.876C112.736 56.068 112.713 56.236 112.713 56.379C112.713 56.656 112.756 56.891 112.838 57.081C112.922 57.268 113.028 57.423 113.164 57.547C113.297 57.672 113.454 57.77 113.627 57.846C113.8 57.924 113.979 57.994 114.159 58.058C114.34 58.119 114.514 58.182 114.689 58.241C114.864 58.303 115.017 58.379 115.153 58.472C115.286 58.567 115.395 58.683 115.478 58.819C115.561 58.957 115.601 59.135 115.601 59.351C115.601 59.517 115.575 59.665 115.521 59.797C115.465 59.927 115.392 60.041 115.297 60.134C115.201 60.23 115.091 60.304 114.96 60.356C114.827 60.404 114.688 60.43 114.54 60.43C114.265 60.43 114.051 60.392 113.897 60.308C113.742 60.224 113.627 60.114 113.552 59.98C113.478 59.839 113.433 59.685 113.416 59.517C113.396 59.349 113.391 59.181 113.391 59.007H112.635C112.635 59.335 112.664 59.625 112.726 59.877C112.786 60.131 112.885 60.346 113.025 60.516C113.166 60.688 113.355 60.821 113.592 60.911C113.827 61.003 114.125 61.049 114.487 61.049C114.704 61.049 114.926 61.021 115.152 60.963C115.378 60.907 115.581 60.809 115.764 60.671C115.947 60.532 116.096 60.349 116.214 60.114C116.331 59.882 116.39 59.586 116.39 59.231C116.392 58.859 116.321 58.567 116.176 58.354Z" fill="#263268"/>
</g>
<mask id="mask54_250_20378" style="mask-type:luminance" maskUnits="userSpaceOnUse" x="0" y="0" width="173" height="63">
<path d="M172.989 0H0V62.398H172.989V0Z" fill="white"/>
</mask>
<g mask="url(#mask54_250_20378)">
<path d="M119.408 59.6049C119.408 59.7249 119.382 59.8369 119.33 59.9459C119.279 60.0519 119.211 60.1439 119.125 60.2219C119.04 60.3039 118.941 60.3679 118.829 60.4109C118.717 60.4579 118.6 60.4809 118.482 60.4809C118.235 60.4809 118.067 60.4069 117.972 60.2629C117.877 60.1149 117.829 59.9239 117.829 59.6909C117.829 59.4929 117.86 59.3379 117.919 59.2319C117.979 59.1279 118.066 59.0379 118.181 58.9619C118.261 58.9109 118.358 58.8669 118.473 58.8329C118.586 58.7999 118.701 58.7659 118.816 58.7259C118.93 58.6879 119.04 58.6459 119.147 58.5979C119.251 58.5509 119.338 58.4919 119.408 58.4229V59.6049ZM120.457 60.4499C120.431 60.4609 120.396 60.4629 120.35 60.4629C120.237 60.4629 120.17 60.4289 120.154 60.3549C120.136 60.2789 120.127 60.1929 120.127 60.0949V57.5319C120.127 57.4139 120.121 57.2779 120.106 57.1259C120.091 56.9759 120.04 56.8299 119.953 56.6909C119.864 56.5569 119.724 56.4409 119.537 56.3509C119.348 56.2569 119.08 56.2119 118.729 56.2119C118.182 56.2119 117.788 56.3319 117.548 56.5759C117.308 56.8179 117.187 57.2009 117.187 57.7219H117.908V57.6779C117.908 57.6399 117.914 57.5679 117.921 57.4679C117.931 57.3669 117.959 57.2659 118.007 57.1629C118.057 57.0599 118.132 56.9709 118.239 56.8919C118.343 56.8159 118.498 56.7779 118.697 56.7779C118.936 56.7779 119.119 56.8349 119.245 56.9549C119.371 57.0709 119.434 57.2369 119.434 57.4549C119.434 57.5539 119.43 57.6359 119.424 57.7029C119.417 57.7709 119.402 57.8319 119.368 57.8839C119.337 57.9359 119.287 57.9819 119.215 58.0259C119.143 58.0679 119.042 58.1079 118.91 58.1479L117.941 58.4409C117.644 58.5349 117.426 58.6849 117.286 58.8989C117.146 59.1129 117.075 59.3829 117.075 59.7099C117.075 60.1199 117.177 60.4459 117.382 60.6869C117.583 60.9249 117.899 61.0469 118.328 61.0469C118.545 61.0469 118.755 60.9889 118.957 60.8709C119.161 60.7549 119.317 60.5949 119.434 60.3889H119.451C119.456 60.5369 119.483 60.6509 119.528 60.7289C119.575 60.8089 119.628 60.8699 119.686 60.9059C119.745 60.9439 119.814 60.9639 119.888 60.9689C119.961 60.9749 120.034 60.9769 120.101 60.9769C120.195 60.9769 120.28 60.9729 120.361 60.9629C120.439 60.9489 120.494 60.9429 120.522 60.9369V60.4199C120.504 60.4319 120.483 60.4399 120.457 60.4499Z" fill="#263268"/>
</g>
<mask id="mask55_250_20378" style="mask-type:luminance" maskUnits="userSpaceOnUse" x="0" y="0" width="173" height="63">
<path d="M172.989 0H0V62.398H172.989V0Z" fill="white"/>
</mask>
<g mask="url(#mask55_250_20378)">
<path d="M123.582 56.333V59.504C123.582 59.67 123.552 59.811 123.497 59.931C123.437 60.046 123.364 60.141 123.274 60.217C123.182 60.29 123.084 60.345 122.976 60.377C122.87 60.412 122.77 60.429 122.673 60.429C122.507 60.429 122.378 60.399 122.29 60.335C122.202 60.274 122.135 60.194 122.09 60.101C122.043 60.004 122.016 59.907 122.009 59.796C121.999 59.689 121.996 59.59 121.996 59.504V56.333H121.274V59.59C121.274 59.726 121.279 59.88 121.291 60.048C121.303 60.217 121.349 60.377 121.425 60.525C121.503 60.673 121.621 60.797 121.785 60.897C121.948 60.998 122.181 61.047 122.482 61.047C122.706 61.047 122.923 60.989 123.134 60.877C123.346 60.763 123.499 60.599 123.598 60.387H123.614V60.925H124.3V56.333H123.582Z" fill="#263268"/>
</g>
<mask id="mask56_250_20378" style="mask-type:luminance" maskUnits="userSpaceOnUse" x="0" y="0" width="173" height="63">
<path d="M172.989 0H0V62.398H172.989V0Z" fill="white"/>
</mask>
<g mask="url(#mask56_250_20378)">
<path d="M127.73 59.3549C127.707 59.5739 127.661 59.7629 127.597 59.9229C127.531 60.0809 127.439 60.2069 127.317 60.2959C127.199 60.3839 127.037 60.4279 126.838 60.4279C126.673 60.4279 126.535 60.3859 126.428 60.2999C126.319 60.2159 126.234 60.0939 126.168 59.9399C126.107 59.7859 126.062 59.5969 126.036 59.3769C126.01 59.1519 125.998 58.9019 125.998 58.6299C125.998 58.3539 126.01 58.1059 126.036 57.8839C126.061 57.6589 126.107 57.4719 126.168 57.3179C126.233 57.1639 126.318 57.0459 126.428 56.9579C126.535 56.8739 126.673 56.8299 126.838 56.8299C127.033 56.8299 127.191 56.8819 127.311 56.9839C127.43 57.0879 127.524 57.2229 127.594 57.3959C127.661 57.5679 127.707 57.7599 127.731 57.9739C127.752 58.1879 127.764 58.4069 127.764 58.6299C127.764 58.8909 127.752 59.1329 127.73 59.3549ZM127.721 54.8079V56.8549H127.705C127.624 56.6549 127.486 56.4999 127.291 56.3829C127.098 56.2689 126.898 56.2119 126.694 56.2119C126.366 56.2119 126.107 56.2919 125.917 56.4569C125.726 56.6209 125.581 56.8209 125.478 57.0609C125.379 57.3009 125.314 57.5619 125.287 57.8439C125.259 58.1279 125.245 58.3879 125.245 58.6299C125.245 58.9879 125.272 59.3179 125.328 59.6149C125.38 59.9109 125.467 60.1649 125.589 60.3759C125.707 60.5879 125.862 60.7539 126.052 60.8719C126.24 60.9879 126.471 61.0459 126.745 61.0459C126.87 61.0459 126.989 61.0259 127.096 60.9879C127.205 60.9459 127.305 60.8929 127.393 60.8339C127.48 60.7679 127.557 60.6929 127.615 60.6129C127.676 60.5289 127.719 60.4449 127.739 60.3589H127.757V60.9229H128.443V54.8069L127.721 54.8079Z" fill="#263268"/>
</g>
<mask id="mask57_250_20378" style="mask-type:luminance" maskUnits="userSpaceOnUse" x="0" y="0" width="173" height="63">
<path d="M172.989 0H0V62.398H172.989V0Z" fill="white"/>
</mask>
<g mask="url(#mask57_250_20378)">
<path d="M129.598 60.9241H130.318V56.3321H129.598V60.9241ZM129.598 55.6301H130.318V54.8081H129.598V55.6301Z" fill="#263268"/>
</g>
<mask id="mask58_250_20378" style="mask-type:luminance" maskUnits="userSpaceOnUse" x="0" y="0" width="173" height="63">
<path d="M172.989 0H0V62.398H172.989V0Z" fill="white"/>
</mask>
<g mask="url(#mask58_250_20378)">
<path d="M134.242 58.6301L135.092 55.6741H135.11L135.89 58.6301H134.242ZM135.624 54.8081H134.611L132.846 60.9241H133.634L134.088 59.2471H136.043L136.48 60.9241H137.267L135.624 54.8081Z" fill="#263268"/>
</g>
<mask id="mask59_250_20378" style="mask-type:luminance" maskUnits="userSpaceOnUse" x="0" y="0" width="173" height="63">
<path d="M172.989 0H0V62.398H172.989V0Z" fill="white"/>
</mask>
<g mask="url(#mask59_250_20378)">
<path d="M139.574 56.2119C139.441 56.2119 139.325 56.2339 139.225 56.2749C139.125 56.3189 139.037 56.3779 138.959 56.4529C138.883 56.5269 138.813 56.6129 138.75 56.7119C138.687 56.8079 138.629 56.9119 138.58 57.0199H138.56V56.3329H137.841V60.9249H138.56V58.0199C138.56 57.8319 138.593 57.6699 138.66 57.5319C138.726 57.3959 138.806 57.2839 138.9 57.1939C138.994 57.1039 139.094 57.0399 139.203 56.9979C139.312 56.9559 139.413 56.9339 139.505 56.9339C139.619 56.9339 139.702 56.9379 139.757 56.9469C139.811 56.9569 139.857 56.9649 139.889 56.9679V56.2659C139.822 56.2289 139.718 56.2119 139.574 56.2119Z" fill="#263268"/>
</g>
<mask id="mask60_250_20378" style="mask-type:luminance" maskUnits="userSpaceOnUse" x="0" y="0" width="173" height="63">
<path d="M172.989 0H0V62.398H172.989V0Z" fill="white"/>
</mask>
<g mask="url(#mask60_250_20378)">
<path d="M142.659 59.6049C142.659 59.7249 142.634 59.8369 142.581 59.9459C142.532 60.0519 142.461 60.1439 142.375 60.2219C142.29 60.3039 142.191 60.3679 142.081 60.4109C141.97 60.4579 141.853 60.4809 141.734 60.4809C141.487 60.4809 141.316 60.4069 141.223 60.2629C141.128 60.1149 141.081 59.9239 141.081 59.6909C141.081 59.4929 141.112 59.3379 141.171 59.2319C141.231 59.1279 141.318 59.0379 141.431 58.9619C141.514 58.9109 141.611 58.8669 141.724 58.8329C141.838 58.7999 141.953 58.7659 142.066 58.7259C142.182 58.6879 142.292 58.6459 142.398 58.5979C142.503 58.5509 142.59 58.4919 142.659 58.4229V59.6049ZM143.709 60.4499C143.683 60.4609 143.647 60.4629 143.602 60.4629C143.489 60.4629 143.422 60.4289 143.406 60.3549C143.39 60.2789 143.38 60.1929 143.38 60.0949V57.5319C143.38 57.4139 143.373 57.2779 143.359 57.1259C143.345 56.9759 143.294 56.8299 143.205 56.6909C143.117 56.5569 142.977 56.4409 142.789 56.3509C142.6 56.2569 142.332 56.2119 141.983 56.2119C141.433 56.2119 141.041 56.3319 140.801 56.5759C140.561 56.8179 140.441 57.2009 140.441 57.7219H141.162V57.6779C141.162 57.6399 141.164 57.5679 141.174 57.4679C141.184 57.3669 141.212 57.2659 141.26 57.1629C141.31 57.0599 141.385 56.9709 141.492 56.8919C141.596 56.8159 141.75 56.7779 141.949 56.7779C142.189 56.7779 142.373 56.8349 142.498 56.9549C142.624 57.0709 142.686 57.2369 142.686 57.4549C142.686 57.5539 142.683 57.6359 142.678 57.7029C142.671 57.7709 142.655 57.8319 142.622 57.8839C142.591 57.9359 142.539 57.9819 142.467 58.0259C142.397 58.0679 142.297 58.1079 142.164 58.1479L141.196 58.4409C140.898 58.5349 140.68 58.6849 140.54 58.8989C140.4 59.1129 140.329 59.3829 140.329 59.7099C140.329 60.1199 140.432 60.4459 140.636 60.6869C140.837 60.9249 141.154 61.0469 141.582 61.0469C141.799 61.0469 142.007 60.9889 142.211 60.8709C142.413 60.7549 142.572 60.5949 142.686 60.3889H142.706C142.71 60.5369 142.736 60.6509 142.781 60.7289C142.826 60.8089 142.88 60.8699 142.94 60.9059C143 60.9439 143.068 60.9639 143.141 60.9689C143.215 60.9749 143.287 60.9769 143.355 60.9769C143.448 60.9769 143.533 60.9729 143.612 60.9629C143.692 60.9489 143.747 60.9429 143.775 60.9369V60.4199C143.757 60.4319 143.735 60.4399 143.709 60.4499Z" fill="#263268"/>
</g>
<mask id="mask61_250_20378" style="mask-type:luminance" maskUnits="userSpaceOnUse" x="0" y="0" width="173" height="63">
<path d="M172.989 0H0V62.398H172.989V0Z" fill="white"/>
</mask>
<g mask="url(#mask61_250_20378)">
<path d="M146.932 59.3531C146.906 59.5721 146.861 59.7631 146.798 59.9231C146.735 60.0811 146.649 60.2071 146.539 60.2961C146.433 60.3841 146.296 60.4281 146.13 60.4281C145.935 60.4281 145.778 60.3801 145.66 60.2801C145.538 60.1801 145.444 60.0481 145.375 59.8801C145.306 59.7161 145.261 59.5241 145.239 59.3081C145.216 59.0901 145.204 58.8641 145.204 58.6311C145.204 58.4071 145.216 58.1891 145.239 57.9751C145.26 57.7611 145.305 57.5691 145.375 57.3971C145.444 57.2241 145.538 57.0881 145.66 56.9851C145.778 56.8821 145.934 56.8311 146.13 56.8311C146.296 56.8311 146.433 56.8751 146.539 56.9591C146.648 57.0471 146.735 57.1651 146.798 57.3191C146.861 57.4731 146.905 57.6611 146.932 57.8851C146.957 58.1071 146.97 58.3551 146.97 58.6311C146.97 58.8911 146.957 59.1331 146.932 59.3531ZM147.682 57.8441C147.654 57.5621 147.589 57.3011 147.493 57.0611C147.394 56.8221 147.256 56.6221 147.07 56.4571C146.882 56.2921 146.635 56.2121 146.328 56.2121C146.093 56.2121 145.88 56.2691 145.682 56.3831C145.483 56.4991 145.344 56.6541 145.264 56.8551H145.247V54.8081H144.527V60.9241H145.214V60.3601H145.231C145.254 60.4461 145.294 60.5301 145.354 60.6141C145.416 60.6941 145.49 60.7681 145.577 60.8331C145.665 60.8951 145.765 60.9471 145.874 60.9871C145.981 61.0271 146.1 61.0471 146.225 61.0471C146.49 61.0471 146.714 60.9821 146.907 60.8491C147.099 60.7191 147.255 60.5451 147.375 60.3231C147.494 60.1031 147.585 59.8461 147.641 59.5561C147.698 59.2641 147.726 58.9551 147.726 58.6311C147.724 58.3881 147.711 58.1281 147.682 57.8441Z" fill="#263268"/>
</g>
<mask id="mask62_250_20378" style="mask-type:luminance" maskUnits="userSpaceOnUse" x="0" y="0" width="173" height="63">
<path d="M172.989 0H0V62.398H172.989V0Z" fill="white"/>
</mask>
<g mask="url(#mask62_250_20378)">
<path d="M148.71 60.9241H149.432V56.3321H148.71V60.9241ZM148.71 55.6301H149.432V54.8081H148.71V55.6301Z" fill="#263268"/>
</g>
<mask id="mask63_250_20378" style="mask-type:luminance" maskUnits="userSpaceOnUse" x="0" y="0" width="173" height="63">
<path d="M172.989 0H0V62.398H172.989V0Z" fill="white"/>
</mask>
<g mask="url(#mask63_250_20378)">
<path d="M152.692 59.6049C152.692 59.7249 152.67 59.8369 152.618 59.9459C152.565 60.0519 152.497 60.1439 152.411 60.2219C152.326 60.3039 152.228 60.3679 152.116 60.4109C152.005 60.4579 151.888 60.4809 151.767 60.4809C151.523 60.4809 151.352 60.4069 151.257 60.2629C151.165 60.1149 151.116 59.9239 151.116 59.6909C151.116 59.4929 151.147 59.3379 151.208 59.2319C151.267 59.1279 151.354 59.0379 151.469 58.9619C151.549 58.9109 151.646 58.8669 151.76 58.8329C151.874 58.7999 151.988 58.7659 152.102 58.7259C152.216 58.6879 152.328 58.6459 152.432 58.5979C152.539 58.5509 152.627 58.4919 152.692 58.4229V59.6049ZM153.745 60.4499C153.719 60.4609 153.683 60.4629 153.639 60.4629C153.523 60.4629 153.458 60.4289 153.442 60.3549C153.422 60.2789 153.416 60.1929 153.416 60.0949V57.5319C153.416 57.4139 153.409 57.2779 153.395 57.1259C153.38 56.9759 153.329 56.8299 153.242 56.6909C153.152 56.5569 153.013 56.4409 152.826 56.3509C152.637 56.2569 152.368 56.2119 152.019 56.2119C151.471 56.2119 151.077 56.3319 150.836 56.5759C150.597 56.8179 150.476 57.2009 150.476 57.7219H151.195V57.6779C151.195 57.6399 151.2 57.5679 151.211 57.4679C151.218 57.3669 151.245 57.2659 151.296 57.1629C151.343 57.0599 151.422 56.9709 151.525 56.8919C151.631 56.8159 151.784 56.7779 151.986 56.7779C152.225 56.7779 152.408 56.8349 152.534 56.9549C152.66 57.0709 152.722 57.2369 152.722 57.4549C152.722 57.5539 152.719 57.6359 152.715 57.7029C152.708 57.7709 152.689 57.8319 152.657 57.8839C152.628 57.9359 152.574 57.9819 152.504 58.0259C152.432 58.0679 152.33 58.1079 152.199 58.1479L151.231 58.4409C150.934 58.5349 150.715 58.6849 150.576 58.8989C150.435 59.1129 150.365 59.3829 150.365 59.7099C150.365 60.1199 150.467 60.4459 150.669 60.6869C150.872 60.9249 151.189 61.0469 151.616 61.0469C151.834 61.0469 152.043 60.9889 152.247 60.8709C152.449 60.7549 152.608 60.5949 152.722 60.3889H152.741C152.747 60.5369 152.772 60.6509 152.818 60.7289C152.862 60.8089 152.917 60.8699 152.975 60.9059C153.036 60.9439 153.101 60.9639 153.177 60.9689C153.251 60.9749 153.323 60.9769 153.392 60.9769C153.482 60.9769 153.567 60.9729 153.648 60.9629C153.729 60.9489 153.783 60.9429 153.812 60.9369V60.4199C153.793 60.4319 153.771 60.4399 153.745 60.4499Z" fill="#263268"/>
</g>
<mask id="mask64_250_20378" style="mask-type:luminance" maskUnits="userSpaceOnUse" x="0" y="0" width="173" height="63">
<path d="M172.989 0H0V62.398H172.989V0Z" fill="white"/>
</mask>
<g mask="url(#mask64_250_20378)">
<path d="M157.469 60.2579C157.514 60.0559 157.595 59.8709 157.708 59.6949C157.822 59.5219 157.962 59.3649 158.128 59.2199L158.985 58.4759C159.157 58.3299 159.307 58.1909 159.439 58.0489C159.571 57.9089 159.679 57.7609 159.77 57.6049C159.858 57.4469 159.927 57.2789 159.974 57.0979C160.024 56.9179 160.048 56.7099 160.048 56.4779C160.048 56.3459 160.028 56.1879 159.992 56.0009C159.954 55.8169 159.876 55.6389 159.76 55.4709C159.644 55.3009 159.477 55.1579 159.264 55.0359C159.048 54.9179 158.769 54.8579 158.419 54.8579C158.111 54.8579 157.845 54.9059 157.627 54.9979C157.406 55.0929 157.229 55.2229 157.09 55.3929C156.953 55.5609 156.853 55.7649 156.792 56.0009C156.727 56.2389 156.696 56.4999 156.696 56.7859H157.451C157.451 56.6999 157.455 56.5839 157.468 56.4329C157.48 56.2849 157.518 56.1429 157.578 55.9999C157.642 55.8599 157.737 55.7359 157.867 55.6299C157.994 55.5259 158.176 55.4739 158.41 55.4739C158.571 55.4739 158.706 55.5079 158.822 55.5729C158.936 55.6379 159.026 55.7219 159.095 55.8269C159.164 55.9289 159.213 56.0449 159.244 56.1739C159.276 56.3019 159.292 56.4319 159.292 56.5619C159.292 56.7279 159.274 56.8779 159.236 57.0119C159.199 57.1469 159.144 57.2709 159.072 57.3869C159.002 57.4999 158.916 57.6089 158.816 57.7109C158.716 57.8149 158.605 57.9169 158.486 58.0189L157.989 58.4399C157.817 58.5889 157.653 58.7479 157.497 58.9159C157.338 59.0869 157.2 59.2699 157.081 59.4769C156.961 59.6829 156.864 59.9079 156.791 60.1459C156.714 60.3859 156.678 60.6459 156.678 60.9239H160.073V60.2579H157.469Z" fill="#263268"/>
</g>
<mask id="mask65_250_20378" style="mask-type:luminance" maskUnits="userSpaceOnUse" x="0" y="0" width="173" height="63">
<path d="M172.989 0H0V62.398H172.989V0Z" fill="white"/>
</mask>
<g mask="url(#mask65_250_20378)">
<path d="M109.85 58.2371H107.642V58.9011H109.85V58.2371Z" fill="#263268"/>
</g>
<mask id="mask66_250_20378" style="mask-type:luminance" maskUnits="userSpaceOnUse" x="0" y="0" width="173" height="63">
<path d="M172.989 0H0V62.398H172.989V0Z" fill="white"/>
</mask>
<g mask="url(#mask66_250_20378)">
<path d="M163.617 58.9071C163.603 59.2081 163.562 59.4751 163.499 59.7101C163.432 59.9441 163.333 60.1301 163.202 60.2711C163.071 60.4111 162.891 60.4831 162.66 60.4831C162.428 60.4831 162.245 60.4111 162.117 60.2711C161.99 60.1301 161.891 59.9451 161.826 59.7101C161.762 59.4761 161.722 59.2081 161.707 58.9071C161.692 58.6091 161.686 58.2991 161.686 57.9781C161.686 57.6481 161.693 57.3281 161.707 57.0191C161.722 56.7111 161.762 56.4371 161.826 56.2011C161.891 55.9631 161.99 55.7771 162.117 55.6331C162.245 55.4951 162.428 55.4251 162.66 55.4251C162.891 55.4251 163.071 55.4951 163.202 55.6331C163.333 55.7781 163.431 55.9631 163.499 56.2011C163.562 56.4371 163.603 56.7121 163.617 57.0191C163.631 57.3281 163.638 57.6481 163.638 57.9781C163.639 58.2981 163.631 58.6091 163.617 58.9071ZM164.355 56.8661C164.329 56.4931 164.257 56.1571 164.144 55.8611C164.03 55.5641 163.857 55.3221 163.625 55.1381C163.393 54.9511 163.072 54.8601 162.659 54.8601C162.387 54.8601 162.154 54.9041 161.962 54.9941C161.771 55.0891 161.611 55.2111 161.483 55.3661C161.355 55.5261 161.253 55.7091 161.18 55.9191C161.104 56.1271 161.049 56.3461 161.01 56.5771C160.976 56.8071 160.951 57.0461 160.943 57.2861C160.934 57.5241 160.93 57.7551 160.93 57.9781C160.93 58.2181 160.934 58.4621 160.943 58.7071C160.952 58.9531 160.976 59.1871 161.01 59.4141C161.049 59.6401 161.104 59.8541 161.18 60.0531C161.252 60.2521 161.355 60.4251 161.483 60.5731C161.612 60.7181 161.771 60.8341 161.962 60.9201C162.154 61.0041 162.387 61.0481 162.659 61.0481C163.072 61.0481 163.392 60.9481 163.625 60.7501C163.856 60.5481 164.029 60.2961 164.144 59.9931C164.257 59.6911 164.329 59.3601 164.355 58.9981C164.381 58.6381 164.392 58.3001 164.392 57.9791C164.393 57.6081 164.382 57.2361 164.355 56.8661Z" fill="#263268"/>
</g>
<mask id="mask67_250_20378" style="mask-type:luminance" maskUnits="userSpaceOnUse" x="0" y="0" width="173" height="63">
<path d="M172.989 0H0V62.398H172.989V0Z" fill="white"/>
</mask>
<g mask="url(#mask67_250_20378)">
<path d="M166.038 60.2579C166.086 60.0559 166.164 59.8709 166.28 59.6949C166.394 59.5219 166.534 59.3649 166.697 59.2199L167.555 58.4759C167.727 58.3299 167.878 58.1909 168.009 58.0489C168.14 57.9089 168.251 57.7609 168.339 57.6049C168.427 57.4469 168.495 57.2789 168.545 57.0979C168.593 56.9179 168.617 56.7099 168.617 56.4779C168.617 56.3459 168.599 56.1879 168.561 56.0009C168.523 55.8169 168.448 55.6389 168.33 55.4709C168.214 55.3009 168.047 55.1579 167.833 55.0359C167.619 54.9179 167.337 54.8579 166.988 54.8579C166.679 54.8579 166.416 54.9059 166.195 54.9979C165.976 55.0929 165.798 55.2229 165.66 55.3929C165.524 55.5609 165.426 55.7649 165.361 56.0009C165.298 56.2389 165.265 56.4999 165.265 56.7859H166.019C166.019 56.6999 166.027 56.5839 166.037 56.4329C166.049 56.2849 166.086 56.1429 166.148 55.9999C166.211 55.8599 166.308 55.7359 166.435 55.6299C166.563 55.5259 166.745 55.4739 166.981 55.4739C167.139 55.4739 167.278 55.5079 167.391 55.5729C167.505 55.6379 167.598 55.7219 167.666 55.8269C167.733 55.9289 167.782 56.0449 167.815 56.1739C167.846 56.3019 167.862 56.4319 167.862 56.5619C167.862 56.7279 167.843 56.8779 167.806 57.0119C167.768 57.1469 167.715 57.2709 167.645 57.3869C167.571 57.4999 167.485 57.6089 167.385 57.7109C167.285 57.8149 167.176 57.9169 167.056 58.0189L166.56 58.4399C166.387 58.5889 166.222 58.7479 166.067 58.9159C165.91 59.0869 165.769 59.2699 165.65 59.4769C165.53 59.6829 165.432 59.9079 165.36 60.1459C165.286 60.3859 165.247 60.6459 165.247 60.9239H168.641V60.2579H166.038Z" fill="#263268"/>
</g>
<mask id="mask68_250_20378" style="mask-type:luminance" maskUnits="userSpaceOnUse" x="0" y="0" width="173" height="63">
<path d="M172.989 0H0V62.398H172.989V0Z" fill="white"/>
</mask>
<g mask="url(#mask68_250_20378)">
<path d="M172.526 57.486C172.246 57.139 171.877 56.967 171.42 56.967C171.216 56.967 171.019 57.005 170.83 57.083C170.642 57.159 170.485 57.271 170.359 57.419L170.339 57.403L170.581 55.647H172.715V54.98H170.007L169.673 58.09L170.322 58.124C170.322 58.09 170.344 58.038 170.381 57.968C170.422 57.902 170.48 57.836 170.556 57.772C170.63 57.71 170.72 57.652 170.823 57.606C170.93 57.558 171.05 57.532 171.18 57.532C171.37 57.532 171.529 57.572 171.661 57.652C171.792 57.734 171.895 57.837 171.973 57.966C172.05 58.094 172.105 58.24 172.141 58.406C172.174 58.572 172.192 58.736 172.192 58.902C172.192 59.056 172.182 59.226 172.157 59.409C172.135 59.591 172.09 59.763 172.015 59.923C171.944 60.081 171.844 60.216 171.711 60.321C171.58 60.427 171.409 60.481 171.196 60.481C170.997 60.481 170.836 60.439 170.712 60.351C170.591 60.265 170.496 60.163 170.43 60.044C170.366 59.922 170.323 59.8 170.301 59.672C170.282 59.548 170.273 59.446 170.273 59.364H169.519C169.519 59.486 169.539 59.639 169.573 59.832C169.611 60.024 169.689 60.208 169.81 60.389C169.929 60.569 170.097 60.723 170.316 60.851C170.532 60.982 170.821 61.045 171.18 61.045C171.495 61.045 171.764 60.991 171.992 60.877C172.218 60.767 172.399 60.615 172.54 60.427C172.681 60.239 172.782 60.021 172.85 59.769C172.913 59.518 172.947 59.248 172.947 58.962C172.946 58.325 172.806 57.833 172.526 57.486Z" fill="#263268"/>
</g>
</g>
<defs>
<clipPath id="clip0_250_20378">
<rect width="172.989" height="62.398" fill="white"/>
</clipPath>
</defs>
</svg>