<?xml version="1.0" encoding="UTF-8" standalone="no"?>
<!DOCTYPE svg PUBLIC "-//W3C//DTD SVG 1.1//EN" "http://www.w3.org/Graphics/SVG/1.1/DTD/svg11.dtd">
<svg width="100%" height="100%" viewBox="0 0 1781 600" version="1.1" xmlns="http://www.w3.org/2000/svg" xmlns:xlink="http://www.w3.org/1999/xlink" xml:space="preserve" xmlns:serif="http://www.serif.com/" style="fill-rule:evenodd;clip-rule:evenodd;stroke-linejoin:round;stroke-miterlimit:2;">
    <g id="Artboard1" transform="matrix(0.97316,0,0,1,-35.457718,0)">
        <rect x="36.436" y="0" width="1829.703" height="600" style="fill:none;"/>
        <g transform="matrix(0.975018,0,0,0.948849,936.167848,4.752831)">
            <path d="M204.496,258.044C189.248,200.046 174.617,157.014 158.004,127.196C146.706,106.916 132.949,86.909 121.821,76.529C110.302,65.785 96.157,61.36 85.469,69.073C66.311,82.898 67.306,99.709 48.674,102.666C39.222,104.167 20.984,102.174 20.589,88.754C20.277,78.13 27.153,64.827 40.819,49.137C54.239,33.729 77.611,18.525 117.333,18.525C176.535,18.525 236.999,38.985 264.686,106.019C268.826,116.04 275.983,139.482 283.162,164.69L380.935,48.661C395.836,30.977 422.172,-6.883 456.525,23.98C490.878,54.844 462.829,81.522 447.928,99.206L309.055,264.009C313.048,279.389 316.793,291.9 320.693,306.972C360.563,461.05 400.086,451.458 411.149,450.649C434.259,448.959 436.383,417.316 449.559,411.986C462.734,406.656 490.694,407.355 490.694,423.418C490.694,443.877 476.339,459.371 464.389,469.828C452.527,480.207 437.776,493.647 393.233,493.647C330.525,493.647 286.48,476.974 269.126,450.462C258.329,433.967 245.125,399.282 231.671,355.841L143.159,460.88C128.258,478.564 101.922,516.424 67.569,485.561C33.216,454.698 61.265,428.019 76.166,410.335L204.496,258.044ZM-908.794,610.067L-908.794,217.273L-844.81,217.273L-840.621,266.584L-838.364,266.584C-831.192,254.803 -822.57,244.767 -812.5,236.478C-802.424,228.189 -790.905,221.787 -777.942,217.273C-764.979,212.758 -750.753,210.5 -735.262,210.5C-708.837,210.5 -685.804,216.826 -666.163,229.477C-646.517,242.122 -631.279,259.491 -620.45,281.583C-609.616,303.67 -604.199,328.886 -604.199,357.234C-604.199,385.581 -609.616,410.801 -620.45,432.893C-631.279,454.98 -646.672,472.348 -666.631,485C-686.583,497.645 -710.319,503.967 -737.837,503.967C-759.606,503.967 -778.533,499.782 -794.617,491.41C-810.695,483.033 -823.358,472.842 -832.605,460.838L-832.605,610.067L-908.794,610.067ZM-757.466,441.932C-742.093,441.932 -728.693,438.337 -717.264,431.147C-705.83,423.958 -696.974,414.061 -690.695,401.457C-684.417,388.853 -681.278,374.223 -681.278,357.569C-681.278,340.909 -684.417,326.276 -690.695,313.672C-696.974,301.068 -705.83,291.174 -717.264,283.99C-728.693,276.801 -742.093,273.206 -757.466,273.206C-772.622,273.206 -786.008,276.801 -797.624,283.99C-809.24,291.174 -818.229,301.068 -824.59,313.672C-830.945,326.276 -834.122,340.909 -834.122,357.569C-834.122,374.223 -830.945,388.853 -824.59,401.457C-818.229,414.061 -809.24,423.958 -797.624,431.147C-786.008,438.337 -772.622,441.932 -757.466,441.932ZM-564.535,497.195L-564.535,102.143L-489.669,102.143L-489.669,264.114L-487.411,264.114C-477.447,246.655 -464.614,233.354 -448.911,224.212C-433.203,215.071 -414.512,210.5 -392.837,210.5C-370.286,210.5 -351.142,215.474 -335.405,225.421C-319.667,235.361 -307.654,249.953 -299.365,269.194C-291.076,288.435 -286.931,312.085 -286.931,340.144L-286.931,497.195L-362.556,497.195L-362.556,347.208C-362.556,323.975 -367.159,306.071 -376.365,293.496C-385.565,280.916 -400.397,274.626 -420.861,274.626C-433.73,274.626 -445.314,277.75 -455.613,283.999C-465.913,290.243 -473.943,299.14 -479.704,310.692C-485.465,322.243 -488.346,336.285 -488.346,352.816L-488.346,497.195L-564.535,497.195ZM-109.273,503.967C-136.297,503.967 -160.676,497.727 -182.41,485.246C-204.138,472.766 -221.336,455.5 -234.005,433.449C-246.674,411.392 -253.008,385.984 -253.008,357.225C-253.008,328.39 -246.636,302.914 -233.89,280.798C-221.139,258.677 -203.874,241.431 -182.093,229.062C-160.306,216.688 -135.903,210.5 -108.885,210.5C-81.86,210.5 -57.484,216.688 -35.756,229.062C-14.022,241.431 3.179,258.677 15.848,280.798C28.516,302.914 34.851,328.39 34.851,357.225C34.851,386.072 28.478,411.5 15.733,433.511C2.988,455.521 -14.278,472.766 -36.065,485.246C-57.845,497.727 -82.248,503.967 -109.273,503.967ZM-109.414,439.824C-97.139,439.824 -86.025,436.773 -76.073,430.671C-66.12,424.563 -58.086,415.386 -51.973,403.141C-45.853,390.89 -42.793,375.602 -42.793,357.278C-42.793,338.813 -45.815,323.437 -51.858,311.15C-57.895,298.864 -65.896,289.708 -75.861,283.682C-85.819,277.656 -96.742,274.643 -108.629,274.643C-120.604,274.643 -131.662,277.656 -141.803,283.682C-151.938,289.708 -160.065,298.864 -166.185,311.15C-172.305,323.437 -175.365,338.813 -175.365,357.278C-175.365,375.602 -172.305,390.89 -166.185,403.141C-160.065,415.386 -152.014,424.563 -142.032,430.671C-132.05,436.773 -121.177,439.824 -109.414,439.824ZM534.05,497.195L534.05,217.273L610.239,217.273L610.239,497.195L534.05,497.195ZM572.312,181.912C558.491,181.912 547.169,177.794 538.345,169.558C529.527,161.322 525.118,151.031 525.118,138.686C525.118,126.352 529.512,116.049 538.301,107.778C547.089,99.507 558.427,95.371 572.312,95.371C586.192,95.371 597.541,99.507 606.359,107.778C615.183,116.049 619.595,126.393 619.595,138.809C619.595,151.001 615.183,161.233 606.359,169.505C597.541,177.776 586.192,181.912 572.312,181.912ZM734.962,497.195L644.762,217.273L724.857,217.273L791.107,446.808L794.026,446.808L860.506,217.273L939.807,217.273L849.607,497.195L734.962,497.195Z" style="fill:url(#_Linear1);"/>
        </g>
    </g>
    <defs>
        <linearGradient id="_Linear1" x1="0" y1="0" x2="1" y2="0" gradientUnits="userSpaceOnUse" gradientTransform="matrix(381.064613,425.738653,-425.738653,381.064613,67.873992,45.105982)"><stop offset="0" style="stop-color:rgb(223,73,81);stop-opacity:1"/><stop offset="0.3" style="stop-color:rgb(225,112,140);stop-opacity:1"/><stop offset="0.5" style="stop-color:rgb(221,143,181);stop-opacity:1"/><stop offset="0.72" style="stop-color:rgb(120,154,193);stop-opacity:1"/><stop offset="1" style="stop-color:rgb(4,183,205);stop-opacity:1"/></linearGradient>
    </defs>
</svg>
