<?xml version="1.0" encoding="UTF-8" standalone="no"?>
<!DOCTYPE svg PUBLIC "-//W3C//DTD SVG 1.1//EN" "http://www.w3.org/Graphics/SVG/1.1/DTD/svg11.dtd">
<svg width="100%" height="100%" viewBox="0 0 1781 600" version="1.1" xmlns="http://www.w3.org/2000/svg" xmlns:xlink="http://www.w3.org/1999/xlink" xml:space="preserve" xmlns:serif="http://www.serif.com/" style="fill-rule:evenodd;clip-rule:evenodd;stroke-linejoin:round;stroke-miterlimit:2;">
    <g id="Artboard1" transform="matrix(0.97316,0,0,1,-35.457718,0)">
        <rect x="36.436" y="0" width="1829.703" height="600" style="fill:none;"/>
        <g transform="matrix(0.988074,0,0,0.961555,935.899163,-1.564445)">
            <path d="M204.496,257.958C189.248,199.96 174.617,156.928 158.004,127.11C146.706,106.83 132.949,86.823 121.821,76.443C110.302,65.699 96.157,61.274 85.469,68.987C66.311,82.812 67.306,99.623 48.674,102.581C39.222,104.081 20.984,102.088 20.589,88.668C20.277,78.044 27.153,64.741 40.819,49.051C54.239,33.643 77.611,18.439 117.333,18.439C176.535,18.439 236.999,38.899 264.686,105.933C268.826,115.954 275.983,139.396 283.162,164.604L380.935,48.575C395.836,30.891 422.172,-6.969 456.525,23.894C490.878,54.758 462.829,81.436 447.928,99.12L309.055,263.923C313.048,279.303 316.793,291.814 320.693,306.886C360.563,460.964 400.086,451.372 411.149,450.563C434.259,448.873 436.383,417.23 449.559,411.9C462.734,406.57 490.694,407.269 490.694,423.332C490.694,443.791 476.339,459.285 464.389,469.742C452.527,480.121 437.776,493.561 393.233,493.561C330.525,493.561 286.48,476.888 269.126,450.376C258.329,433.881 245.125,399.196 231.671,355.755L143.159,460.794C128.258,478.478 101.922,516.338 67.569,485.475C33.216,454.612 61.265,427.933 76.166,410.249L204.496,257.958ZM-896.513,608.575L-896.513,220.971L-833.375,220.971L-829.241,269.631L-827.014,269.631C-819.936,258.005 -811.429,248.103 -801.492,239.924C-791.549,231.744 -780.182,225.427 -767.39,220.971C-754.599,216.516 -740.56,214.289 -725.275,214.289C-699.199,214.289 -676.47,220.531 -657.089,233.014C-637.702,245.493 -622.665,262.632 -611.98,284.432C-601.288,306.227 -595.943,331.11 -595.943,359.083C-595.943,387.056 -601.288,411.943 -611.98,433.743C-622.665,455.538 -637.856,472.677 -657.55,485.161C-677.239,497.639 -700.661,503.878 -727.816,503.878C-749.297,503.878 -767.973,499.747 -783.845,491.487C-799.711,483.22 -812.207,473.164 -821.332,461.318L-821.332,608.575L-896.513,608.575ZM-747.185,442.662C-732.016,442.662 -718.792,439.115 -707.515,432.02C-696.232,424.925 -687.492,415.159 -681.297,402.722C-675.101,390.284 -672.003,375.848 -672.003,359.414C-672.003,342.974 -675.101,328.535 -681.297,316.097C-687.492,303.66 -696.232,293.897 -707.515,286.808C-718.792,279.713 -732.016,276.166 -747.185,276.166C-762.14,276.166 -775.349,279.713 -786.812,286.808C-798.275,293.897 -807.145,303.66 -813.422,316.097C-819.693,328.535 -822.828,342.974 -822.828,359.414C-822.828,375.848 -819.693,390.284 -813.422,402.722C-807.145,415.159 -798.275,424.925 -786.812,432.02C-775.349,439.115 -762.14,442.662 -747.185,442.662ZM-556.803,497.195L-556.803,107.363L-482.926,107.363L-482.926,267.194L-480.699,267.194C-470.866,249.965 -458.202,236.84 -442.708,227.82C-427.207,218.799 -408.763,214.289 -387.374,214.289C-365.121,214.289 -346.23,219.196 -330.701,229.012C-315.171,238.821 -303.317,253.22 -295.137,272.206C-286.958,291.193 -282.868,314.531 -282.868,342.22L-282.868,497.195L-357.493,497.195L-357.493,349.189C-357.493,326.264 -362.035,308.597 -371.12,296.188C-380.198,283.774 -394.834,277.567 -415.028,277.567C-427.726,277.567 -439.157,280.65 -449.321,286.816C-459.484,292.977 -467.409,301.757 -473.094,313.156C-478.779,324.555 -481.621,338.411 -481.621,354.724L-481.621,497.195L-556.803,497.195ZM-107.557,503.878C-134.224,503.878 -158.281,497.72 -179.728,485.404C-201.169,473.089 -218.14,456.051 -230.641,434.291C-243.142,412.526 -249.393,387.453 -249.393,359.075C-249.393,330.62 -243.105,305.481 -230.528,283.658C-217.945,261.828 -200.908,244.811 -179.415,232.605C-157.916,220.394 -133.836,214.289 -107.174,214.289C-80.507,214.289 -56.452,220.394 -35.012,232.605C-13.565,244.811 3.409,261.828 15.91,283.658C28.411,305.481 34.662,330.62 34.662,359.075C34.662,387.54 28.374,412.633 15.797,434.352C3.22,456.071 -13.817,473.089 -35.316,485.404C-56.809,497.72 -80.889,503.878 -107.557,503.878ZM-107.696,440.582C-95.583,440.582 -84.617,437.572 -74.795,431.55C-64.974,425.523 -57.047,416.467 -51.014,404.384C-44.975,392.294 -41.956,377.209 -41.956,359.127C-41.956,340.906 -44.937,325.733 -50.901,313.609C-56.858,301.484 -64.754,292.449 -74.587,286.503C-84.414,280.557 -95.192,277.584 -106.922,277.584C-118.738,277.584 -129.65,280.557 -139.657,286.503C-149.658,292.449 -157.678,301.484 -163.717,313.609C-169.756,325.733 -172.775,340.906 -172.775,359.127C-172.775,377.209 -169.756,392.294 -163.717,404.384C-157.678,416.467 -149.734,425.523 -139.883,431.55C-130.033,437.572 -119.304,440.582 -107.696,440.582ZM527.265,497.195L527.265,220.971L602.447,220.971L602.447,497.195L527.265,497.195ZM565.022,186.078C551.383,186.078 540.211,182.014 531.503,173.887C522.802,165.76 518.451,155.605 518.451,143.423C518.451,131.252 522.787,121.086 531.46,112.924C540.132,104.762 551.32,100.681 565.022,100.681C578.718,100.681 589.917,104.762 598.619,112.924C607.326,121.086 611.68,131.293 611.68,143.545C611.68,155.576 607.326,165.673 598.619,173.835C589.917,181.997 578.718,186.078 565.022,186.078ZM725.523,497.195L636.514,220.971L715.551,220.971L780.926,447.474L783.806,447.474L849.407,220.971L927.661,220.971L838.652,497.195L725.523,497.195Z" style="fill:url(#_Linear1);"/>
        </g>
    </g>
    <defs>
        <linearGradient id="_Linear1" x1="0" y1="0" x2="1" y2="0" gradientUnits="userSpaceOnUse" gradientTransform="matrix(381.064613,425.738653,-425.738653,381.064613,67.873992,45.105982)"><stop offset="0" style="stop-color:rgb(255,182,103);stop-opacity:1"/><stop offset="0.25" style="stop-color:rgb(255,203,149);stop-opacity:1"/><stop offset="0.5" style="stop-color:rgb(255,229,206);stop-opacity:1"/><stop offset="0.75" style="stop-color:rgb(234,239,255);stop-opacity:1"/><stop offset="1" style="stop-color:rgb(169,205,255);stop-opacity:1"/></linearGradient>
    </defs>
</svg>
