<?xml version="1.0" encoding="UTF-8" standalone="no"?>
<!DOCTYPE svg PUBLIC "-//W3C//DTD SVG 1.1//EN" "http://www.w3.org/Graphics/SVG/1.1/DTD/svg11.dtd">
<svg width="100%" height="100%" viewBox="0 0 512 512" version="1.1" xmlns="http://www.w3.org/2000/svg" xmlns:xlink="http://www.w3.org/1999/xlink" xml:space="preserve" xmlns:serif="http://www.serif.com/" style="fill-rule:evenodd;clip-rule:evenodd;stroke-linejoin:round;stroke-miterlimit:2;">
    <path d="M203.842,255.476C188.829,198.731 174.379,156.501 158.004,127.11C146.706,106.83 132.949,86.823 121.821,76.443C110.302,65.699 96.157,61.274 85.469,68.987C66.311,82.812 67.306,99.623 48.674,102.581C39.222,104.081 20.984,102.088 20.589,88.668C20.277,78.044 27.153,64.741 40.819,49.051C54.239,33.643 77.611,18.439 117.333,18.439C176.535,18.439 236.999,38.899 264.686,105.933C269.092,116.598 276.916,142.465 284.545,169.484L391.779,55.223C407.604,38.361 435.925,1.962 468.58,34.617C501.235,67.272 471.8,92.413 455.975,109.276L309.443,265.411C313.291,280.118 316.919,292.303 320.693,306.886C360.563,460.964 400.086,451.372 411.149,450.563C434.259,448.873 436.383,417.23 449.559,411.9C462.734,406.57 490.694,407.269 490.694,423.332C490.694,443.791 476.339,459.285 464.389,469.742C452.527,480.121 437.776,493.561 393.233,493.561C330.525,493.561 286.48,476.888 269.126,450.376C257.867,433.174 243.988,396.19 229.941,350.123L132.315,454.146C116.49,471.009 88.169,507.407 55.514,474.752C22.859,442.097 52.294,416.956 68.119,400.093L203.842,255.476Z" style="fill:url(#_Linear1);"/>
    <defs>
        <linearGradient id="_Linear1" x1="0" y1="0" x2="1" y2="0" gradientUnits="userSpaceOnUse" gradientTransform="matrix(381.064613,425.738653,-425.738653,381.064613,67.873992,45.105982)"><stop offset="0" style="stop-color:rgb(223,73,81);stop-opacity:1"/><stop offset="0.28" style="stop-color:rgb(228,109,138);stop-opacity:1"/><stop offset="0.5" style="stop-color:rgb(222,143,181);stop-opacity:1"/><stop offset="0.77" style="stop-color:rgb(134,161,194);stop-opacity:1"/><stop offset="1" style="stop-color:rgb(0,183,204);stop-opacity:1"/></linearGradient>
    </defs>
</svg>
