<?xml version="1.0" encoding="UTF-8" standalone="no"?>
<!DOCTYPE svg PUBLIC "-//W3C//DTD SVG 1.1//EN" "http://www.w3.org/Graphics/SVG/1.1/DTD/svg11.dtd">
<svg width="100%" height="100%" viewBox="0 0 512 512" version="1.1" xmlns="http://www.w3.org/2000/svg" xmlns:xlink="http://www.w3.org/1999/xlink" xml:space="preserve" xmlns:serif="http://www.serif.com/" style="fill-rule:evenodd;clip-rule:evenodd;stroke-linejoin:round;stroke-miterlimit:2;">
    <path d="M204.496,257.958C189.248,199.96 174.617,156.928 158.004,127.11C146.706,106.83 132.949,86.823 121.821,76.443C110.302,65.699 96.157,61.274 85.469,68.987C66.311,82.812 67.306,99.623 48.674,102.581C39.222,104.081 20.984,102.088 20.589,88.668C20.277,78.044 27.153,64.741 40.819,49.051C54.239,33.643 77.611,18.439 117.333,18.439C176.535,18.439 236.999,38.899 264.686,105.933C268.826,115.954 275.983,139.396 283.162,164.604L380.935,48.575C395.836,30.891 422.172,-6.969 456.525,23.894C490.878,54.758 462.829,81.436 447.928,99.12L309.055,263.923C313.048,279.303 316.793,291.814 320.693,306.886C360.563,460.964 400.086,451.372 411.149,450.563C434.259,448.873 436.383,417.23 449.559,411.9C462.734,406.57 490.694,407.269 490.694,423.332C490.694,443.791 476.339,459.285 464.389,469.742C452.527,480.121 437.776,493.561 393.233,493.561C330.525,493.561 286.48,476.888 269.126,450.376C258.329,433.881 245.125,399.196 231.671,355.755L143.159,460.794C128.258,478.478 101.922,516.338 67.569,485.475C33.216,454.612 61.265,427.933 76.166,410.249L204.496,257.958Z" style="fill:url(#_Linear1);"/>
    <defs>
        <linearGradient id="_Linear1" x1="0" y1="0" x2="1" y2="0" gradientUnits="userSpaceOnUse" gradientTransform="matrix(381.064613,425.738653,-425.738653,381.064613,67.873992,45.105982)"><stop offset="0" style="stop-color:rgb(255,181,103);stop-opacity:1"/><stop offset="0.25" style="stop-color:rgb(255,203,149);stop-opacity:1"/><stop offset="0.5" style="stop-color:rgb(255,229,206);stop-opacity:1"/><stop offset="0.75" style="stop-color:rgb(234,239,255);stop-opacity:1"/><stop offset="1" style="stop-color:rgb(169,205,255);stop-opacity:1"/></linearGradient>
    </defs>
</svg>
